solid CATIA STL
  facet normal  1.000000e+000  0.000000e+000  0.000000e+000
    outer loop
      vertex  5.000000e+000  1.382293e+002 -1.224715e-014
      vertex  5.000000e+000  0.000000e+000  5.000000e+001
      vertex  5.000000e+000  0.000000e+000 -1.224715e-014
    endloop
  endfacet
  facet normal  1.000000e+000  -0.000000e+000  0.000000e+000
    outer loop
      vertex  5.000000e+000  3.273327e-003  5.000000e+001
      vertex  5.000000e+000  0.000000e+000  5.000000e+001
      vertex  5.000000e+000  1.382293e+002 -1.224715e-014
    endloop
  endfacet
  facet normal  1.000000e+000  0.000000e+000  0.000000e+000
    outer loop
      vertex  5.000000e+000  3.273327e-003  5.000000e+001
      vertex  5.000000e+000  1.382293e+002 -1.224715e-014
      vertex  5.000000e+000  9.925976e+000  5.000000e+001
    endloop
  endfacet
  facet normal  9.999999e-001  0.000000e+000  0.000000e+000
    outer loop
      vertex  5.000000e+000  3.273327e-003  5.000000e+001
      vertex  5.000000e+000  9.925976e+000  5.000000e+001
      vertex  5.000000e+000  7.783702e+000  5.588585e+001
    endloop
  endfacet
  facet normal  1.000000e+000  0.000000e+000  0.000000e+000
    outer loop
      vertex  5.000000e+000  3.273327e-003  5.000000e+001
      vertex  5.000000e+000  7.783702e+000  5.588585e+001
      vertex  5.000000e+000  2.145547e+000  5.588585e+001
    endloop
  endfacet
  facet normal  1.000000e+000  0.000000e+000  0.000000e+000
    outer loop
      vertex  5.000000e+000  1.382293e+002 -1.224715e-014
      vertex  5.000000e+000  1.382293e+002  5.000000e+001
      vertex  5.000000e+000  1.355860e+002  5.000000e+001
    endloop
  endfacet
  facet normal  1.000000e+000  0.000000e+000  0.000000e+000
    outer loop
      vertex  5.000000e+000  1.382293e+002 -1.224715e-014
      vertex  5.000000e+000  1.355860e+002  5.000000e+001
      vertex  5.000000e+000  1.256633e+002  5.000000e+001
    endloop
  endfacet
  facet normal  1.000000e+000  0.000000e+000  0.000000e+000
    outer loop
      vertex  5.000000e+000  1.382293e+002 -1.224715e-014
      vertex  5.000000e+000  1.256633e+002  5.000000e+001
      vertex  5.000000e+000  1.230200e+002  5.000000e+001
    endloop
  endfacet
  facet normal  1.000000e+000  0.000000e+000  0.000000e+000
    outer loop
      vertex  5.000000e+000  1.382293e+002 -1.224715e-014
      vertex  5.000000e+000  1.230200e+002  5.000000e+001
      vertex  5.000000e+000  1.130973e+002  5.000000e+001
    endloop
  endfacet
  facet normal  1.000000e+000  0.000000e+000  0.000000e+000
    outer loop
      vertex  5.000000e+000  1.382293e+002 -1.224715e-014
      vertex  5.000000e+000  1.130973e+002  5.000000e+001
      vertex  5.000000e+000  1.104540e+002  5.000000e+001
    endloop
  endfacet
  facet normal  1.000000e+000  0.000000e+000  0.000000e+000
    outer loop
      vertex  5.000000e+000  1.382293e+002 -1.224715e-014
      vertex  5.000000e+000  1.104540e+002  5.000000e+001
      vertex  5.000000e+000  1.005313e+002  5.000000e+001
    endloop
  endfacet
  facet normal  1.000000e+000  0.000000e+000  0.000000e+000
    outer loop
      vertex  5.000000e+000  1.382293e+002 -1.224715e-014
      vertex  5.000000e+000  1.005313e+002  5.000000e+001
      vertex  5.000000e+000  9.788798e+001  5.000000e+001
    endloop
  endfacet
  facet normal  1.000000e+000  0.000000e+000  0.000000e+000
    outer loop
      vertex  5.000000e+000  1.382293e+002 -1.224715e-014
      vertex  5.000000e+000  9.788798e+001  5.000000e+001
      vertex  5.000000e+000  8.796527e+001  5.000000e+001
    endloop
  endfacet
  facet normal  1.000000e+000  0.000000e+000  0.000000e+000
    outer loop
      vertex  5.000000e+000  1.382293e+002 -1.224715e-014
      vertex  5.000000e+000  8.796527e+001  5.000000e+001
      vertex  5.000000e+000  8.532198e+001  5.000000e+001
    endloop
  endfacet
  facet normal  1.000000e+000  0.000000e+000  0.000000e+000
    outer loop
      vertex  5.000000e+000  1.382293e+002 -1.224715e-014
      vertex  5.000000e+000  8.532198e+001  5.000000e+001
      vertex  5.000000e+000  7.539928e+001  5.000000e+001
    endloop
  endfacet
  facet normal  1.000000e+000  0.000000e+000  0.000000e+000
    outer loop
      vertex  5.000000e+000  1.382293e+002 -1.224715e-014
      vertex  5.000000e+000  7.539928e+001  5.000000e+001
      vertex  5.000000e+000  7.275597e+001  5.000000e+001
    endloop
  endfacet
  facet normal  1.000000e+000  0.000000e+000  0.000000e+000
    outer loop
      vertex  5.000000e+000  1.382293e+002 -1.224715e-014
      vertex  5.000000e+000  7.275597e+001  5.000000e+001
      vertex  5.000000e+000  6.283327e+001  5.000000e+001
    endloop
  endfacet
  facet normal  1.000000e+000  0.000000e+000  0.000000e+000
    outer loop
      vertex  5.000000e+000  1.382293e+002 -1.224715e-014
      vertex  5.000000e+000  6.283327e+001  5.000000e+001
      vertex  5.000000e+000  6.018998e+001  5.000000e+001
    endloop
  endfacet
  facet normal  1.000000e+000  0.000000e+000  0.000000e+000
    outer loop
      vertex  5.000000e+000  1.382293e+002 -1.224715e-014
      vertex  5.000000e+000  6.018998e+001  5.000000e+001
      vertex  5.000000e+000  5.026727e+001  5.000000e+001
    endloop
  endfacet
  facet normal  1.000000e+000  0.000000e+000  0.000000e+000
    outer loop
      vertex  5.000000e+000  1.382293e+002 -1.224715e-014
      vertex  5.000000e+000  5.026727e+001  5.000000e+001
      vertex  5.000000e+000  4.762397e+001  5.000000e+001
    endloop
  endfacet
  facet normal  1.000000e+000  0.000000e+000  0.000000e+000
    outer loop
      vertex  5.000000e+000  1.382293e+002 -1.224715e-014
      vertex  5.000000e+000  4.762397e+001  5.000000e+001
      vertex  5.000000e+000  3.770127e+001  5.000000e+001
    endloop
  endfacet
  facet normal  1.000000e+000  0.000000e+000  0.000000e+000
    outer loop
      vertex  5.000000e+000  1.382293e+002 -1.224715e-014
      vertex  5.000000e+000  3.770127e+001  5.000000e+001
      vertex  5.000000e+000  3.505798e+001  5.000000e+001
    endloop
  endfacet
  facet normal  1.000000e+000  0.000000e+000  0.000000e+000
    outer loop
      vertex  5.000000e+000  1.382293e+002 -1.224715e-014
      vertex  5.000000e+000  3.505798e+001  5.000000e+001
      vertex  5.000000e+000  2.513527e+001  5.000000e+001
    endloop
  endfacet
  facet normal  1.000000e+000  0.000000e+000  0.000000e+000
    outer loop
      vertex  5.000000e+000  1.382293e+002 -1.224715e-014
      vertex  5.000000e+000  2.513527e+001  5.000000e+001
      vertex  5.000000e+000  2.249198e+001  5.000000e+001
    endloop
  endfacet
  facet normal  1.000000e+000  0.000000e+000  0.000000e+000
    outer loop
      vertex  5.000000e+000  1.382293e+002 -1.224715e-014
      vertex  5.000000e+000  2.249198e+001  5.000000e+001
      vertex  5.000000e+000  1.256927e+001  5.000000e+001
    endloop
  endfacet
  facet normal  1.000000e+000  0.000000e+000  0.000000e+000
    outer loop
      vertex  5.000000e+000  1.382293e+002 -1.224715e-014
      vertex  5.000000e+000  1.256927e+001  5.000000e+001
      vertex  5.000000e+000  9.925976e+000  5.000000e+001
    endloop
  endfacet
  facet normal  9.999999e-001  0.000000e+000  0.000000e+000
    outer loop
      vertex  5.000000e+000  1.256927e+001  5.000000e+001
      vertex  5.000000e+000  2.249198e+001  5.000000e+001
      vertex  5.000000e+000  1.471155e+001  5.588585e+001
    endloop
  endfacet
  facet normal  1.000000e+000  -0.000000e+000  0.000000e+000
    outer loop
      vertex  5.000000e+000  1.471155e+001  5.588585e+001
      vertex  5.000000e+000  2.249198e+001  5.000000e+001
      vertex  5.000000e+000  2.034970e+001  5.588585e+001
    endloop
  endfacet
  facet normal  1.000000e+000  0.000000e+000  0.000000e+000
    outer loop
      vertex  5.000000e+000  1.471155e+001  5.588585e+001
      vertex  5.000000e+000  2.034970e+001  5.588585e+001
      vertex  5.000000e+000  1.580990e+001  5.731724e+001
    endloop
  endfacet
  facet normal  1.000000e+000  -0.000000e+000  0.000000e+000
    outer loop
      vertex  5.000000e+000  1.580990e+001  5.731724e+001
      vertex  5.000000e+000  2.034970e+001  5.588585e+001
      vertex  5.000000e+000  1.925135e+001  5.731724e+001
    endloop
  endfacet
  facet normal  1.000000e+000  0.000000e+000  0.000000e+000
    outer loop
      vertex  5.000000e+000  1.580990e+001  5.731724e+001
      vertex  5.000000e+000  1.925135e+001  5.731724e+001
      vertex  5.000000e+000  1.753062e+001  5.785979e+001
    endloop
  endfacet
  facet normal  9.999999e-001  0.000000e+000  0.000000e+000
    outer loop
      vertex  5.000000e+000  2.513527e+001  5.000000e+001
      vertex  5.000000e+000  3.505798e+001  5.000000e+001
      vertex  5.000000e+000  2.727755e+001  5.588585e+001
    endloop
  endfacet
  facet normal  1.000000e+000  -0.000000e+000  0.000000e+000
    outer loop
      vertex  5.000000e+000  2.727755e+001  5.588585e+001
      vertex  5.000000e+000  3.505798e+001  5.000000e+001
      vertex  5.000000e+000  3.291570e+001  5.588585e+001
    endloop
  endfacet
  facet normal  1.000000e+000  0.000000e+000  0.000000e+000
    outer loop
      vertex  5.000000e+000  2.727755e+001  5.588585e+001
      vertex  5.000000e+000  3.291570e+001  5.588585e+001
      vertex  5.000000e+000  2.837589e+001  5.731724e+001
    endloop
  endfacet
  facet normal  1.000000e+000  -0.000000e+000  0.000000e+000
    outer loop
      vertex  5.000000e+000  2.837589e+001  5.731724e+001
      vertex  5.000000e+000  3.291570e+001  5.588585e+001
      vertex  5.000000e+000  3.181735e+001  5.731724e+001
    endloop
  endfacet
  facet normal  1.000000e+000  0.000000e+000  0.000000e+000
    outer loop
      vertex  5.000000e+000  2.837589e+001  5.731724e+001
      vertex  5.000000e+000  3.181735e+001  5.731724e+001
      vertex  5.000000e+000  3.009662e+001  5.785979e+001
    endloop
  endfacet
  facet normal  1.000000e+000  0.000000e+000  0.000000e+000
    outer loop
      vertex  5.000000e+000  3.770127e+001  5.000000e+001
      vertex  5.000000e+000  4.762397e+001  5.000000e+001
      vertex  5.000000e+000  3.984355e+001  5.588585e+001
    endloop
  endfacet
  facet normal  1.000000e+000  -0.000000e+000  0.000000e+000
    outer loop
      vertex  5.000000e+000  3.984355e+001  5.588585e+001
      vertex  5.000000e+000  4.762397e+001  5.000000e+001
      vertex  5.000000e+000  4.548170e+001  5.588585e+001
    endloop
  endfacet
  facet normal  1.000000e+000  0.000000e+000  0.000000e+000
    outer loop
      vertex  5.000000e+000  3.984355e+001  5.588585e+001
      vertex  5.000000e+000  4.548170e+001  5.588585e+001
      vertex  5.000000e+000  4.094189e+001  5.731724e+001
    endloop
  endfacet
  facet normal  1.000000e+000  -0.000000e+000  0.000000e+000
    outer loop
      vertex  5.000000e+000  4.094189e+001  5.731724e+001
      vertex  5.000000e+000  4.548170e+001  5.588585e+001
      vertex  5.000000e+000  4.438335e+001  5.731724e+001
    endloop
  endfacet
  facet normal  1.000000e+000  0.000000e+000  0.000000e+000
    outer loop
      vertex  5.000000e+000  4.094189e+001  5.731724e+001
      vertex  5.000000e+000  4.438335e+001  5.731724e+001
      vertex  5.000000e+000  4.266262e+001  5.785979e+001
    endloop
  endfacet
  facet normal  9.999999e-001  0.000000e+000  0.000000e+000
    outer loop
      vertex  5.000000e+000  5.026727e+001  5.000000e+001
      vertex  5.000000e+000  6.018998e+001  5.000000e+001
      vertex  5.000000e+000  5.240955e+001  5.588585e+001
    endloop
  endfacet
  facet normal  1.000000e+000  -0.000000e+000  0.000000e+000
    outer loop
      vertex  5.000000e+000  5.240955e+001  5.588585e+001
      vertex  5.000000e+000  6.018998e+001  5.000000e+001
      vertex  5.000000e+000  5.804770e+001  5.588585e+001
    endloop
  endfacet
  facet normal  1.000000e+000  0.000000e+000  0.000000e+000
    outer loop
      vertex  5.000000e+000  5.240955e+001  5.588585e+001
      vertex  5.000000e+000  5.804770e+001  5.588585e+001
      vertex  5.000000e+000  5.350790e+001  5.731724e+001
    endloop
  endfacet
  facet normal  1.000000e+000  -0.000000e+000  0.000000e+000
    outer loop
      vertex  5.000000e+000  5.350790e+001  5.731724e+001
      vertex  5.000000e+000  5.804770e+001  5.588585e+001
      vertex  5.000000e+000  5.694935e+001  5.731724e+001
    endloop
  endfacet
  facet normal  1.000000e+000  0.000000e+000  0.000000e+000
    outer loop
      vertex  5.000000e+000  5.350790e+001  5.731724e+001
      vertex  5.000000e+000  5.694935e+001  5.731724e+001
      vertex  5.000000e+000  5.522863e+001  5.785979e+001
    endloop
  endfacet
  facet normal  1.000000e+000  0.000000e+000  0.000000e+000
    outer loop
      vertex  5.000000e+000  6.283327e+001  5.000000e+001
      vertex  5.000000e+000  7.275597e+001  5.000000e+001
      vertex  5.000000e+000  6.497555e+001  5.588585e+001
    endloop
  endfacet
  facet normal  1.000000e+000  -0.000000e+000  0.000000e+000
    outer loop
      vertex  5.000000e+000  6.497555e+001  5.588585e+001
      vertex  5.000000e+000  7.275597e+001  5.000000e+001
      vertex  5.000000e+000  7.061370e+001  5.588585e+001
    endloop
  endfacet
  facet normal  1.000000e+000  0.000000e+000  0.000000e+000
    outer loop
      vertex  5.000000e+000  6.497555e+001  5.588585e+001
      vertex  5.000000e+000  7.061370e+001  5.588585e+001
      vertex  5.000000e+000  6.607390e+001  5.731724e+001
    endloop
  endfacet
  facet normal  1.000000e+000  -0.000000e+000  0.000000e+000
    outer loop
      vertex  5.000000e+000  6.607390e+001  5.731724e+001
      vertex  5.000000e+000  7.061370e+001  5.588585e+001
      vertex  5.000000e+000  6.951535e+001  5.731724e+001
    endloop
  endfacet
  facet normal  9.999999e-001  0.000000e+000  0.000000e+000
    outer loop
      vertex  5.000000e+000  6.607390e+001  5.731724e+001
      vertex  5.000000e+000  6.951535e+001  5.731724e+001
      vertex  5.000000e+000  6.779462e+001  5.785979e+001
    endloop
  endfacet
  facet normal  1.000000e+000  0.000000e+000  0.000000e+000
    outer loop
      vertex  5.000000e+000  7.539928e+001  5.000000e+001
      vertex  5.000000e+000  8.532198e+001  5.000000e+001
      vertex  5.000000e+000  7.754155e+001  5.588585e+001
    endloop
  endfacet
  facet normal  1.000000e+000  -0.000000e+000  0.000000e+000
    outer loop
      vertex  5.000000e+000  7.754155e+001  5.588585e+001
      vertex  5.000000e+000  8.532198e+001  5.000000e+001
      vertex  5.000000e+000  8.317970e+001  5.588585e+001
    endloop
  endfacet
  facet normal  1.000000e+000  0.000000e+000  0.000000e+000
    outer loop
      vertex  5.000000e+000  7.754155e+001  5.588585e+001
      vertex  5.000000e+000  8.317970e+001  5.588585e+001
      vertex  5.000000e+000  7.863989e+001  5.731724e+001
    endloop
  endfacet
  facet normal  1.000000e+000  -0.000000e+000  0.000000e+000
    outer loop
      vertex  5.000000e+000  7.863989e+001  5.731724e+001
      vertex  5.000000e+000  8.317970e+001  5.588585e+001
      vertex  5.000000e+000  8.208135e+001  5.731724e+001
    endloop
  endfacet
  facet normal  1.000000e+000  0.000000e+000  0.000000e+000
    outer loop
      vertex  5.000000e+000  7.863989e+001  5.731724e+001
      vertex  5.000000e+000  8.208135e+001  5.731724e+001
      vertex  5.000000e+000  8.036063e+001  5.785979e+001
    endloop
  endfacet
  facet normal  1.000000e+000  0.000000e+000  0.000000e+000
    outer loop
      vertex  5.000000e+000  8.796527e+001  5.000000e+001
      vertex  5.000000e+000  9.788798e+001  5.000000e+001
      vertex  5.000000e+000  9.010754e+001  5.588585e+001
    endloop
  endfacet
  facet normal  1.000000e+000  -0.000000e+000  0.000000e+000
    outer loop
      vertex  5.000000e+000  9.010754e+001  5.588585e+001
      vertex  5.000000e+000  9.788798e+001  5.000000e+001
      vertex  5.000000e+000  9.574570e+001  5.588585e+001
    endloop
  endfacet
  facet normal  1.000000e+000  0.000000e+000  0.000000e+000
    outer loop
      vertex  5.000000e+000  9.010754e+001  5.588585e+001
      vertex  5.000000e+000  9.574570e+001  5.588585e+001
      vertex  5.000000e+000  9.120589e+001  5.731724e+001
    endloop
  endfacet
  facet normal  1.000000e+000  -0.000000e+000  0.000000e+000
    outer loop
      vertex  5.000000e+000  9.120589e+001  5.731724e+001
      vertex  5.000000e+000  9.574570e+001  5.588585e+001
      vertex  5.000000e+000  9.464735e+001  5.731724e+001
    endloop
  endfacet
  facet normal  1.000000e+000  0.000000e+000  0.000000e+000
    outer loop
      vertex  5.000000e+000  9.120589e+001  5.731724e+001
      vertex  5.000000e+000  9.464735e+001  5.731724e+001
      vertex  5.000000e+000  9.292663e+001  5.785979e+001
    endloop
  endfacet
  facet normal  1.000000e+000  0.000000e+000  0.000000e+000
    outer loop
      vertex  5.000000e+000  1.005313e+002  5.000000e+001
      vertex  5.000000e+000  1.104540e+002  5.000000e+001
      vertex  5.000000e+000  1.026735e+002  5.588585e+001
    endloop
  endfacet
  facet normal  1.000000e+000  -0.000000e+000  0.000000e+000
    outer loop
      vertex  5.000000e+000  1.026735e+002  5.588585e+001
      vertex  5.000000e+000  1.104540e+002  5.000000e+001
      vertex  5.000000e+000  1.083117e+002  5.588585e+001
    endloop
  endfacet
  facet normal  1.000000e+000  0.000000e+000  0.000000e+000
    outer loop
      vertex  5.000000e+000  1.026735e+002  5.588585e+001
      vertex  5.000000e+000  1.083117e+002  5.588585e+001
      vertex  5.000000e+000  1.037719e+002  5.731724e+001
    endloop
  endfacet
  facet normal  1.000000e+000  -0.000000e+000  0.000000e+000
    outer loop
      vertex  5.000000e+000  1.037719e+002  5.731724e+001
      vertex  5.000000e+000  1.083117e+002  5.588585e+001
      vertex  5.000000e+000  1.072134e+002  5.731724e+001
    endloop
  endfacet
  facet normal  1.000000e+000  0.000000e+000  0.000000e+000
    outer loop
      vertex  5.000000e+000  1.037719e+002  5.731724e+001
      vertex  5.000000e+000  1.072134e+002  5.731724e+001
      vertex  5.000000e+000  1.054926e+002  5.785979e+001
    endloop
  endfacet
  facet normal  1.000000e+000  0.000000e+000  0.000000e+000
    outer loop
      vertex  5.000000e+000  1.130973e+002  5.000000e+001
      vertex  5.000000e+000  1.230200e+002  5.000000e+001
      vertex  5.000000e+000  1.152395e+002  5.588585e+001
    endloop
  endfacet
  facet normal  1.000000e+000  -0.000000e+000  0.000000e+000
    outer loop
      vertex  5.000000e+000  1.152395e+002  5.588585e+001
      vertex  5.000000e+000  1.230200e+002  5.000000e+001
      vertex  5.000000e+000  1.208777e+002  5.588585e+001
    endloop
  endfacet
  facet normal  1.000000e+000  0.000000e+000  0.000000e+000
    outer loop
      vertex  5.000000e+000  1.152395e+002  5.588585e+001
      vertex  5.000000e+000  1.208777e+002  5.588585e+001
      vertex  5.000000e+000  1.163379e+002  5.731724e+001
    endloop
  endfacet
  facet normal  1.000000e+000  -0.000000e+000  0.000000e+000
    outer loop
      vertex  5.000000e+000  1.163379e+002  5.731724e+001
      vertex  5.000000e+000  1.208777e+002  5.588585e+001
      vertex  5.000000e+000  1.197794e+002  5.731724e+001
    endloop
  endfacet
  facet normal  9.999999e-001  0.000000e+000  0.000000e+000
    outer loop
      vertex  5.000000e+000  1.163379e+002  5.731724e+001
      vertex  5.000000e+000  1.197794e+002  5.731724e+001
      vertex  5.000000e+000  1.180586e+002  5.785979e+001
    endloop
  endfacet
  facet normal  1.000000e+000  0.000000e+000  0.000000e+000
    outer loop
      vertex  5.000000e+000  1.256633e+002  5.000000e+001
      vertex  5.000000e+000  1.355860e+002  5.000000e+001
      vertex  5.000000e+000  1.278055e+002  5.588585e+001
    endloop
  endfacet
  facet normal  1.000000e+000  -0.000000e+000  0.000000e+000
    outer loop
      vertex  5.000000e+000  1.278055e+002  5.588585e+001
      vertex  5.000000e+000  1.355860e+002  5.000000e+001
      vertex  5.000000e+000  1.334437e+002  5.588585e+001
    endloop
  endfacet
  facet normal  1.000000e+000  0.000000e+000  0.000000e+000
    outer loop
      vertex  5.000000e+000  1.278055e+002  5.588585e+001
      vertex  5.000000e+000  1.334437e+002  5.588585e+001
      vertex  5.000000e+000  1.289039e+002  5.731724e+001
    endloop
  endfacet
  facet normal  1.000000e+000  -0.000000e+000  0.000000e+000
    outer loop
      vertex  5.000000e+000  1.289039e+002  5.731724e+001
      vertex  5.000000e+000  1.334437e+002  5.588585e+001
      vertex  5.000000e+000  1.323454e+002  5.731724e+001
    endloop
  endfacet
  facet normal  9.999999e-001  0.000000e+000  0.000000e+000
    outer loop
      vertex  5.000000e+000  1.289039e+002  5.731724e+001
      vertex  5.000000e+000  1.323454e+002  5.731724e+001
      vertex  5.000000e+000  1.306246e+002  5.785979e+001
    endloop
  endfacet
  facet normal  1.000000e+000  0.000000e+000  0.000000e+000
    outer loop
      vertex  5.000000e+000  2.145547e+000  5.588585e+001
      vertex  5.000000e+000  7.783702e+000  5.588585e+001
      vertex  5.000000e+000  3.243895e+000  5.731724e+001
    endloop
  endfacet
  facet normal  1.000000e+000  -0.000000e+000  0.000000e+000
    outer loop
      vertex  5.000000e+000  3.243895e+000  5.731724e+001
      vertex  5.000000e+000  7.783702e+000  5.588585e+001
      vertex  5.000000e+000  6.685354e+000  5.731724e+001
    endloop
  endfacet
  facet normal  1.000000e+000  0.000000e+000  0.000000e+000
    outer loop
      vertex  5.000000e+000  3.243895e+000  5.731724e+001
      vertex  5.000000e+000  6.685354e+000  5.731724e+001
      vertex  5.000000e+000  4.964624e+000  5.785979e+001
    endloop
  endfacet
  facet normal -1.000000e+000  0.000000e+000  0.000000e+000
    outer loop
      vertex -5.000000e+000  0.000000e+000 -1.224715e-014
      vertex -5.000000e+000  0.000000e+000  5.000000e+001
      vertex -5.000000e+000  1.382293e+002 -1.224715e-014
    endloop
  endfacet
  facet normal -1.000000e+000  0.000000e+000  -0.000000e+000
    outer loop
      vertex -5.000000e+000  3.273327e-003  5.000000e+001
      vertex -5.000000e+000  2.145547e+000  5.588585e+001
      vertex -5.000000e+000  7.783702e+000  5.588585e+001
    endloop
  endfacet
  facet normal -1.000000e+000  0.000000e+000  -0.000000e+000
    outer loop
      vertex -5.000000e+000  3.273327e-003  5.000000e+001
      vertex -5.000000e+000  7.783702e+000  5.588585e+001
      vertex -5.000000e+000  9.925976e+000  5.000000e+001
    endloop
  endfacet
  facet normal -1.000000e+000  -0.000000e+000  -0.000000e+000
    outer loop
      vertex -5.000000e+000  3.273327e-003  5.000000e+001
      vertex -5.000000e+000  9.925976e+000  5.000000e+001
      vertex -5.000000e+000  1.382293e+002 -1.224715e-014
    endloop
  endfacet
  facet normal -1.000000e+000  0.000000e+000  0.000000e+000
    outer loop
      vertex -5.000000e+000  3.273327e-003  5.000000e+001
      vertex -5.000000e+000  1.382293e+002 -1.224715e-014
      vertex -5.000000e+000  0.000000e+000  5.000000e+001
    endloop
  endfacet
  facet normal -1.000000e+000  0.000000e+000  0.000000e+000
    outer loop
      vertex -5.000000e+000  1.382293e+002 -1.224715e-014
      vertex -5.000000e+000  9.925976e+000  5.000000e+001
      vertex -5.000000e+000  1.256927e+001  5.000000e+001
    endloop
  endfacet
  facet normal -1.000000e+000  0.000000e+000  0.000000e+000
    outer loop
      vertex -5.000000e+000  1.382293e+002 -1.224715e-014
      vertex -5.000000e+000  1.256927e+001  5.000000e+001
      vertex -5.000000e+000  2.249198e+001  5.000000e+001
    endloop
  endfacet
  facet normal -1.000000e+000  0.000000e+000  0.000000e+000
    outer loop
      vertex -5.000000e+000  1.382293e+002 -1.224715e-014
      vertex -5.000000e+000  2.249198e+001  5.000000e+001
      vertex -5.000000e+000  2.513527e+001  5.000000e+001
    endloop
  endfacet
  facet normal -1.000000e+000  0.000000e+000  0.000000e+000
    outer loop
      vertex -5.000000e+000  1.382293e+002 -1.224715e-014
      vertex -5.000000e+000  2.513527e+001  5.000000e+001
      vertex -5.000000e+000  3.505798e+001  5.000000e+001
    endloop
  endfacet
  facet normal -1.000000e+000  0.000000e+000  0.000000e+000
    outer loop
      vertex -5.000000e+000  1.382293e+002 -1.224715e-014
      vertex -5.000000e+000  3.505798e+001  5.000000e+001
      vertex -5.000000e+000  3.770127e+001  5.000000e+001
    endloop
  endfacet
  facet normal -1.000000e+000  0.000000e+000  0.000000e+000
    outer loop
      vertex -5.000000e+000  1.382293e+002 -1.224715e-014
      vertex -5.000000e+000  3.770127e+001  5.000000e+001
      vertex -5.000000e+000  4.762397e+001  5.000000e+001
    endloop
  endfacet
  facet normal -1.000000e+000  0.000000e+000  0.000000e+000
    outer loop
      vertex -5.000000e+000  1.382293e+002 -1.224715e-014
      vertex -5.000000e+000  4.762397e+001  5.000000e+001
      vertex -5.000000e+000  5.026727e+001  5.000000e+001
    endloop
  endfacet
  facet normal -1.000000e+000  0.000000e+000  0.000000e+000
    outer loop
      vertex -5.000000e+000  1.382293e+002 -1.224715e-014
      vertex -5.000000e+000  5.026727e+001  5.000000e+001
      vertex -5.000000e+000  6.018998e+001  5.000000e+001
    endloop
  endfacet
  facet normal -1.000000e+000  0.000000e+000  0.000000e+000
    outer loop
      vertex -5.000000e+000  1.382293e+002 -1.224715e-014
      vertex -5.000000e+000  6.018998e+001  5.000000e+001
      vertex -5.000000e+000  6.283327e+001  5.000000e+001
    endloop
  endfacet
  facet normal -1.000000e+000  0.000000e+000  0.000000e+000
    outer loop
      vertex -5.000000e+000  1.382293e+002 -1.224715e-014
      vertex -5.000000e+000  6.283327e+001  5.000000e+001
      vertex -5.000000e+000  7.275597e+001  5.000000e+001
    endloop
  endfacet
  facet normal -1.000000e+000  0.000000e+000  0.000000e+000
    outer loop
      vertex -5.000000e+000  1.382293e+002 -1.224715e-014
      vertex -5.000000e+000  7.275597e+001  5.000000e+001
      vertex -5.000000e+000  7.539928e+001  5.000000e+001
    endloop
  endfacet
  facet normal -1.000000e+000  0.000000e+000  0.000000e+000
    outer loop
      vertex -5.000000e+000  1.382293e+002 -1.224715e-014
      vertex -5.000000e+000  7.539928e+001  5.000000e+001
      vertex -5.000000e+000  8.532198e+001  5.000000e+001
    endloop
  endfacet
  facet normal -1.000000e+000  0.000000e+000  0.000000e+000
    outer loop
      vertex -5.000000e+000  1.382293e+002 -1.224715e-014
      vertex -5.000000e+000  8.532198e+001  5.000000e+001
      vertex -5.000000e+000  8.796527e+001  5.000000e+001
    endloop
  endfacet
  facet normal -1.000000e+000  0.000000e+000  0.000000e+000
    outer loop
      vertex -5.000000e+000  1.382293e+002 -1.224715e-014
      vertex -5.000000e+000  8.796527e+001  5.000000e+001
      vertex -5.000000e+000  9.788798e+001  5.000000e+001
    endloop
  endfacet
  facet normal -1.000000e+000  0.000000e+000  0.000000e+000
    outer loop
      vertex -5.000000e+000  1.382293e+002 -1.224715e-014
      vertex -5.000000e+000  9.788798e+001  5.000000e+001
      vertex -5.000000e+000  1.005313e+002  5.000000e+001
    endloop
  endfacet
  facet normal -1.000000e+000  0.000000e+000  0.000000e+000
    outer loop
      vertex -5.000000e+000  1.382293e+002 -1.224715e-014
      vertex -5.000000e+000  1.005313e+002  5.000000e+001
      vertex -5.000000e+000  1.104540e+002  5.000000e+001
    endloop
  endfacet
  facet normal -1.000000e+000  0.000000e+000  0.000000e+000
    outer loop
      vertex -5.000000e+000  1.382293e+002 -1.224715e-014
      vertex -5.000000e+000  1.104540e+002  5.000000e+001
      vertex -5.000000e+000  1.130973e+002  5.000000e+001
    endloop
  endfacet
  facet normal -1.000000e+000  0.000000e+000  0.000000e+000
    outer loop
      vertex -5.000000e+000  1.382293e+002 -1.224715e-014
      vertex -5.000000e+000  1.130973e+002  5.000000e+001
      vertex -5.000000e+000  1.230200e+002  5.000000e+001
    endloop
  endfacet
  facet normal -1.000000e+000  0.000000e+000  0.000000e+000
    outer loop
      vertex -5.000000e+000  1.382293e+002 -1.224715e-014
      vertex -5.000000e+000  1.230200e+002  5.000000e+001
      vertex -5.000000e+000  1.256633e+002  5.000000e+001
    endloop
  endfacet
  facet normal -1.000000e+000  0.000000e+000  0.000000e+000
    outer loop
      vertex -5.000000e+000  1.382293e+002 -1.224715e-014
      vertex -5.000000e+000  1.256633e+002  5.000000e+001
      vertex -5.000000e+000  1.355860e+002  5.000000e+001
    endloop
  endfacet
  facet normal -1.000000e+000  0.000000e+000  0.000000e+000
    outer loop
      vertex -5.000000e+000  1.382293e+002 -1.224715e-014
      vertex -5.000000e+000  1.355860e+002  5.000000e+001
      vertex -5.000000e+000  1.382293e+002  5.000000e+001
    endloop
  endfacet
  facet normal -1.000000e+000  0.000000e+000  0.000000e+000
    outer loop
      vertex -5.000000e+000  1.753062e+001  5.785979e+001
      vertex -5.000000e+000  1.925135e+001  5.731724e+001
      vertex -5.000000e+000  1.580990e+001  5.731724e+001
    endloop
  endfacet
  facet normal -1.000000e+000  0.000000e+000  0.000000e+000
    outer loop
      vertex -5.000000e+000  1.580990e+001  5.731724e+001
      vertex -5.000000e+000  1.925135e+001  5.731724e+001
      vertex -5.000000e+000  2.034970e+001  5.588585e+001
    endloop
  endfacet
  facet normal -1.000000e+000  0.000000e+000  0.000000e+000
    outer loop
      vertex -5.000000e+000  1.580990e+001  5.731724e+001
      vertex -5.000000e+000  2.034970e+001  5.588585e+001
      vertex -5.000000e+000  1.471155e+001  5.588585e+001
    endloop
  endfacet
  facet normal -1.000000e+000  0.000000e+000  0.000000e+000
    outer loop
      vertex -5.000000e+000  1.471155e+001  5.588585e+001
      vertex -5.000000e+000  2.034970e+001  5.588585e+001
      vertex -5.000000e+000  2.249198e+001  5.000000e+001
    endloop
  endfacet
  facet normal -9.999999e-001  0.000000e+000  0.000000e+000
    outer loop
      vertex -5.000000e+000  1.471155e+001  5.588585e+001
      vertex -5.000000e+000  2.249198e+001  5.000000e+001
      vertex -5.000000e+000  1.256927e+001  5.000000e+001
    endloop
  endfacet
  facet normal -1.000000e+000  0.000000e+000  0.000000e+000
    outer loop
      vertex -5.000000e+000  3.009662e+001  5.785979e+001
      vertex -5.000000e+000  3.181735e+001  5.731724e+001
      vertex -5.000000e+000  2.837589e+001  5.731724e+001
    endloop
  endfacet
  facet normal -1.000000e+000  0.000000e+000  0.000000e+000
    outer loop
      vertex -5.000000e+000  2.837589e+001  5.731724e+001
      vertex -5.000000e+000  3.181735e+001  5.731724e+001
      vertex -5.000000e+000  3.291570e+001  5.588585e+001
    endloop
  endfacet
  facet normal -1.000000e+000  0.000000e+000  0.000000e+000
    outer loop
      vertex -5.000000e+000  2.837589e+001  5.731724e+001
      vertex -5.000000e+000  3.291570e+001  5.588585e+001
      vertex -5.000000e+000  2.727755e+001  5.588585e+001
    endloop
  endfacet
  facet normal -1.000000e+000  0.000000e+000  0.000000e+000
    outer loop
      vertex -5.000000e+000  2.727755e+001  5.588585e+001
      vertex -5.000000e+000  3.291570e+001  5.588585e+001
      vertex -5.000000e+000  3.505798e+001  5.000000e+001
    endloop
  endfacet
  facet normal -9.999999e-001  0.000000e+000  0.000000e+000
    outer loop
      vertex -5.000000e+000  2.727755e+001  5.588585e+001
      vertex -5.000000e+000  3.505798e+001  5.000000e+001
      vertex -5.000000e+000  2.513527e+001  5.000000e+001
    endloop
  endfacet
  facet normal -1.000000e+000  0.000000e+000  0.000000e+000
    outer loop
      vertex -5.000000e+000  4.266262e+001  5.785979e+001
      vertex -5.000000e+000  4.438335e+001  5.731724e+001
      vertex -5.000000e+000  4.094189e+001  5.731724e+001
    endloop
  endfacet
  facet normal -1.000000e+000  0.000000e+000  0.000000e+000
    outer loop
      vertex -5.000000e+000  4.094189e+001  5.731724e+001
      vertex -5.000000e+000  4.438335e+001  5.731724e+001
      vertex -5.000000e+000  4.548170e+001  5.588585e+001
    endloop
  endfacet
  facet normal -1.000000e+000  0.000000e+000  0.000000e+000
    outer loop
      vertex -5.000000e+000  4.094189e+001  5.731724e+001
      vertex -5.000000e+000  4.548170e+001  5.588585e+001
      vertex -5.000000e+000  3.984355e+001  5.588585e+001
    endloop
  endfacet
  facet normal -1.000000e+000  0.000000e+000  0.000000e+000
    outer loop
      vertex -5.000000e+000  3.984355e+001  5.588585e+001
      vertex -5.000000e+000  4.548170e+001  5.588585e+001
      vertex -5.000000e+000  4.762397e+001  5.000000e+001
    endloop
  endfacet
  facet normal -1.000000e+000  0.000000e+000  0.000000e+000
    outer loop
      vertex -5.000000e+000  3.984355e+001  5.588585e+001
      vertex -5.000000e+000  4.762397e+001  5.000000e+001
      vertex -5.000000e+000  3.770127e+001  5.000000e+001
    endloop
  endfacet
  facet normal -1.000000e+000  0.000000e+000  0.000000e+000
    outer loop
      vertex -5.000000e+000  5.522863e+001  5.785979e+001
      vertex -5.000000e+000  5.694935e+001  5.731724e+001
      vertex -5.000000e+000  5.350790e+001  5.731724e+001
    endloop
  endfacet
  facet normal -1.000000e+000  0.000000e+000  0.000000e+000
    outer loop
      vertex -5.000000e+000  5.350790e+001  5.731724e+001
      vertex -5.000000e+000  5.694935e+001  5.731724e+001
      vertex -5.000000e+000  5.804770e+001  5.588585e+001
    endloop
  endfacet
  facet normal -1.000000e+000  0.000000e+000  0.000000e+000
    outer loop
      vertex -5.000000e+000  5.350790e+001  5.731724e+001
      vertex -5.000000e+000  5.804770e+001  5.588585e+001
      vertex -5.000000e+000  5.240955e+001  5.588585e+001
    endloop
  endfacet
  facet normal -1.000000e+000  0.000000e+000  0.000000e+000
    outer loop
      vertex -5.000000e+000  5.240955e+001  5.588585e+001
      vertex -5.000000e+000  5.804770e+001  5.588585e+001
      vertex -5.000000e+000  6.018998e+001  5.000000e+001
    endloop
  endfacet
  facet normal -9.999999e-001  0.000000e+000  0.000000e+000
    outer loop
      vertex -5.000000e+000  5.240955e+001  5.588585e+001
      vertex -5.000000e+000  6.018998e+001  5.000000e+001
      vertex -5.000000e+000  5.026727e+001  5.000000e+001
    endloop
  endfacet
  facet normal -9.999999e-001  0.000000e+000  0.000000e+000
    outer loop
      vertex -5.000000e+000  6.779462e+001  5.785979e+001
      vertex -5.000000e+000  6.951535e+001  5.731724e+001
      vertex -5.000000e+000  6.607390e+001  5.731724e+001
    endloop
  endfacet
  facet normal -1.000000e+000  0.000000e+000  0.000000e+000
    outer loop
      vertex -5.000000e+000  6.607390e+001  5.731724e+001
      vertex -5.000000e+000  6.951535e+001  5.731724e+001
      vertex -5.000000e+000  7.061370e+001  5.588585e+001
    endloop
  endfacet
  facet normal -1.000000e+000  0.000000e+000  0.000000e+000
    outer loop
      vertex -5.000000e+000  6.607390e+001  5.731724e+001
      vertex -5.000000e+000  7.061370e+001  5.588585e+001
      vertex -5.000000e+000  6.497555e+001  5.588585e+001
    endloop
  endfacet
  facet normal -1.000000e+000  0.000000e+000  0.000000e+000
    outer loop
      vertex -5.000000e+000  6.497555e+001  5.588585e+001
      vertex -5.000000e+000  7.061370e+001  5.588585e+001
      vertex -5.000000e+000  7.275597e+001  5.000000e+001
    endloop
  endfacet
  facet normal -1.000000e+000  0.000000e+000  0.000000e+000
    outer loop
      vertex -5.000000e+000  6.497555e+001  5.588585e+001
      vertex -5.000000e+000  7.275597e+001  5.000000e+001
      vertex -5.000000e+000  6.283327e+001  5.000000e+001
    endloop
  endfacet
  facet normal -1.000000e+000  0.000000e+000  0.000000e+000
    outer loop
      vertex -5.000000e+000  8.036063e+001  5.785979e+001
      vertex -5.000000e+000  8.208135e+001  5.731724e+001
      vertex -5.000000e+000  7.863989e+001  5.731724e+001
    endloop
  endfacet
  facet normal -1.000000e+000  0.000000e+000  0.000000e+000
    outer loop
      vertex -5.000000e+000  7.863989e+001  5.731724e+001
      vertex -5.000000e+000  8.208135e+001  5.731724e+001
      vertex -5.000000e+000  8.317970e+001  5.588585e+001
    endloop
  endfacet
  facet normal -1.000000e+000  0.000000e+000  0.000000e+000
    outer loop
      vertex -5.000000e+000  7.863989e+001  5.731724e+001
      vertex -5.000000e+000  8.317970e+001  5.588585e+001
      vertex -5.000000e+000  7.754155e+001  5.588585e+001
    endloop
  endfacet
  facet normal -1.000000e+000  0.000000e+000  0.000000e+000
    outer loop
      vertex -5.000000e+000  7.754155e+001  5.588585e+001
      vertex -5.000000e+000  8.317970e+001  5.588585e+001
      vertex -5.000000e+000  8.532198e+001  5.000000e+001
    endloop
  endfacet
  facet normal -1.000000e+000  0.000000e+000  0.000000e+000
    outer loop
      vertex -5.000000e+000  7.754155e+001  5.588585e+001
      vertex -5.000000e+000  8.532198e+001  5.000000e+001
      vertex -5.000000e+000  7.539928e+001  5.000000e+001
    endloop
  endfacet
  facet normal -1.000000e+000  0.000000e+000  0.000000e+000
    outer loop
      vertex -5.000000e+000  9.292663e+001  5.785979e+001
      vertex -5.000000e+000  9.464735e+001  5.731724e+001
      vertex -5.000000e+000  9.120589e+001  5.731724e+001
    endloop
  endfacet
  facet normal -1.000000e+000  0.000000e+000  0.000000e+000
    outer loop
      vertex -5.000000e+000  9.120589e+001  5.731724e+001
      vertex -5.000000e+000  9.464735e+001  5.731724e+001
      vertex -5.000000e+000  9.574570e+001  5.588585e+001
    endloop
  endfacet
  facet normal -1.000000e+000  0.000000e+000  0.000000e+000
    outer loop
      vertex -5.000000e+000  9.120589e+001  5.731724e+001
      vertex -5.000000e+000  9.574570e+001  5.588585e+001
      vertex -5.000000e+000  9.010754e+001  5.588585e+001
    endloop
  endfacet
  facet normal -1.000000e+000  0.000000e+000  0.000000e+000
    outer loop
      vertex -5.000000e+000  9.010754e+001  5.588585e+001
      vertex -5.000000e+000  9.574570e+001  5.588585e+001
      vertex -5.000000e+000  9.788798e+001  5.000000e+001
    endloop
  endfacet
  facet normal -1.000000e+000  0.000000e+000  0.000000e+000
    outer loop
      vertex -5.000000e+000  9.010754e+001  5.588585e+001
      vertex -5.000000e+000  9.788798e+001  5.000000e+001
      vertex -5.000000e+000  8.796527e+001  5.000000e+001
    endloop
  endfacet
  facet normal -1.000000e+000  0.000000e+000  0.000000e+000
    outer loop
      vertex -5.000000e+000  1.054926e+002  5.785979e+001
      vertex -5.000000e+000  1.072134e+002  5.731724e+001
      vertex -5.000000e+000  1.037719e+002  5.731724e+001
    endloop
  endfacet
  facet normal -1.000000e+000  0.000000e+000  0.000000e+000
    outer loop
      vertex -5.000000e+000  1.037719e+002  5.731724e+001
      vertex -5.000000e+000  1.072134e+002  5.731724e+001
      vertex -5.000000e+000  1.083117e+002  5.588585e+001
    endloop
  endfacet
  facet normal -1.000000e+000  0.000000e+000  0.000000e+000
    outer loop
      vertex -5.000000e+000  1.037719e+002  5.731724e+001
      vertex -5.000000e+000  1.083117e+002  5.588585e+001
      vertex -5.000000e+000  1.026735e+002  5.588585e+001
    endloop
  endfacet
  facet normal -1.000000e+000  0.000000e+000  0.000000e+000
    outer loop
      vertex -5.000000e+000  1.026735e+002  5.588585e+001
      vertex -5.000000e+000  1.083117e+002  5.588585e+001
      vertex -5.000000e+000  1.104540e+002  5.000000e+001
    endloop
  endfacet
  facet normal -1.000000e+000  0.000000e+000  0.000000e+000
    outer loop
      vertex -5.000000e+000  1.026735e+002  5.588585e+001
      vertex -5.000000e+000  1.104540e+002  5.000000e+001
      vertex -5.000000e+000  1.005313e+002  5.000000e+001
    endloop
  endfacet
  facet normal -9.999999e-001  0.000000e+000  0.000000e+000
    outer loop
      vertex -5.000000e+000  1.180586e+002  5.785979e+001
      vertex -5.000000e+000  1.197794e+002  5.731724e+001
      vertex -5.000000e+000  1.163379e+002  5.731724e+001
    endloop
  endfacet
  facet normal -1.000000e+000  0.000000e+000  0.000000e+000
    outer loop
      vertex -5.000000e+000  1.163379e+002  5.731724e+001
      vertex -5.000000e+000  1.197794e+002  5.731724e+001
      vertex -5.000000e+000  1.208777e+002  5.588585e+001
    endloop
  endfacet
  facet normal -1.000000e+000  0.000000e+000  0.000000e+000
    outer loop
      vertex -5.000000e+000  1.163379e+002  5.731724e+001
      vertex -5.000000e+000  1.208777e+002  5.588585e+001
      vertex -5.000000e+000  1.152395e+002  5.588585e+001
    endloop
  endfacet
  facet normal -1.000000e+000  0.000000e+000  0.000000e+000
    outer loop
      vertex -5.000000e+000  1.152395e+002  5.588585e+001
      vertex -5.000000e+000  1.208777e+002  5.588585e+001
      vertex -5.000000e+000  1.230200e+002  5.000000e+001
    endloop
  endfacet
  facet normal -1.000000e+000  0.000000e+000  0.000000e+000
    outer loop
      vertex -5.000000e+000  1.152395e+002  5.588585e+001
      vertex -5.000000e+000  1.230200e+002  5.000000e+001
      vertex -5.000000e+000  1.130973e+002  5.000000e+001
    endloop
  endfacet
  facet normal -9.999999e-001  0.000000e+000  0.000000e+000
    outer loop
      vertex -5.000000e+000  1.306246e+002  5.785979e+001
      vertex -5.000000e+000  1.323454e+002  5.731724e+001
      vertex -5.000000e+000  1.289039e+002  5.731724e+001
    endloop
  endfacet
  facet normal -1.000000e+000  0.000000e+000  0.000000e+000
    outer loop
      vertex -5.000000e+000  1.289039e+002  5.731724e+001
      vertex -5.000000e+000  1.323454e+002  5.731724e+001
      vertex -5.000000e+000  1.334437e+002  5.588585e+001
    endloop
  endfacet
  facet normal -1.000000e+000  0.000000e+000  0.000000e+000
    outer loop
      vertex -5.000000e+000  1.289039e+002  5.731724e+001
      vertex -5.000000e+000  1.334437e+002  5.588585e+001
      vertex -5.000000e+000  1.278055e+002  5.588585e+001
    endloop
  endfacet
  facet normal -1.000000e+000  0.000000e+000  0.000000e+000
    outer loop
      vertex -5.000000e+000  1.278055e+002  5.588585e+001
      vertex -5.000000e+000  1.334437e+002  5.588585e+001
      vertex -5.000000e+000  1.355860e+002  5.000000e+001
    endloop
  endfacet
  facet normal -1.000000e+000  0.000000e+000  0.000000e+000
    outer loop
      vertex -5.000000e+000  1.278055e+002  5.588585e+001
      vertex -5.000000e+000  1.355860e+002  5.000000e+001
      vertex -5.000000e+000  1.256633e+002  5.000000e+001
    endloop
  endfacet
  facet normal -1.000000e+000  0.000000e+000  0.000000e+000
    outer loop
      vertex -5.000000e+000  4.964624e+000  5.785979e+001
      vertex -5.000000e+000  6.685354e+000  5.731724e+001
      vertex -5.000000e+000  3.243895e+000  5.731724e+001
    endloop
  endfacet
  facet normal -1.000000e+000  0.000000e+000  0.000000e+000
    outer loop
      vertex -5.000000e+000  3.243895e+000  5.731724e+001
      vertex -5.000000e+000  6.685354e+000  5.731724e+001
      vertex -5.000000e+000  7.783702e+000  5.588585e+001
    endloop
  endfacet
  facet normal -1.000000e+000  0.000000e+000  0.000000e+000
    outer loop
      vertex -5.000000e+000  3.243895e+000  5.731724e+001
      vertex -5.000000e+000  7.783702e+000  5.588585e+001
      vertex -5.000000e+000  2.145547e+000  5.588585e+001
    endloop
  endfacet
  facet normal  0.000000e+000 -9.396927e-001  3.420200e-001
    outer loop
      vertex  5.000000e+000  1.256633e+002  5.000000e+001
      vertex  5.000000e+000  1.278055e+002  5.588585e+001
      vertex -5.000000e+000  1.256633e+002  5.000000e+001
    endloop
  endfacet
  facet normal  0.000000e+000 -9.396927e-001  3.420200e-001
    outer loop
      vertex -5.000000e+000  1.256633e+002  5.000000e+001
      vertex  5.000000e+000  1.278055e+002  5.588585e+001
      vertex -5.000000e+000  1.278055e+002  5.588585e+001
    endloop
  endfacet
  facet normal  0.000000e+000  9.396919e-001  3.420222e-001
    outer loop
      vertex  5.000000e+000  1.334437e+002  5.588585e+001
      vertex  5.000000e+000  1.355860e+002  5.000000e+001
      vertex -5.000000e+000  1.334437e+002  5.588585e+001
    endloop
  endfacet
  facet normal  0.000000e+000  9.396919e-001  3.420222e-001
    outer loop
      vertex -5.000000e+000  1.334437e+002  5.588585e+001
      vertex  5.000000e+000  1.355860e+002  5.000000e+001
      vertex -5.000000e+000  1.355860e+002  5.000000e+001
    endloop
  endfacet
  facet normal  0.000000e+000 -7.933522e-001  6.087629e-001
    outer loop
      vertex -5.000000e+000  1.278055e+002  5.588585e+001
      vertex  5.000000e+000  1.278055e+002  5.588585e+001
      vertex -5.000000e+000  1.289039e+002  5.731724e+001
    endloop
  endfacet
  facet normal  0.000000e+000 -7.933522e-001  6.087629e-001
    outer loop
      vertex -5.000000e+000  1.289039e+002  5.731724e+001
      vertex  5.000000e+000  1.278055e+002  5.588585e+001
      vertex  5.000000e+000  1.289039e+002  5.731724e+001
    endloop
  endfacet
  facet normal  0.000000e+000 -3.007083e-001  9.537162e-001
    outer loop
      vertex -5.000000e+000  1.289039e+002  5.731724e+001
      vertex  5.000000e+000  1.289039e+002  5.731724e+001
      vertex -5.000000e+000  1.306246e+002  5.785979e+001
    endloop
  endfacet
  facet normal  0.000000e+000 -3.007083e-001  9.537162e-001
    outer loop
      vertex -5.000000e+000  1.306246e+002  5.785979e+001
      vertex  5.000000e+000  1.289039e+002  5.731724e+001
      vertex  5.000000e+000  1.306246e+002  5.785979e+001
    endloop
  endfacet
  facet normal  0.000000e+000  3.007059e-001  9.537170e-001
    outer loop
      vertex -5.000000e+000  1.306246e+002  5.785979e+001
      vertex  5.000000e+000  1.306246e+002  5.785979e+001
      vertex -5.000000e+000  1.323454e+002  5.731724e+001
    endloop
  endfacet
  facet normal  -0.000000e+000  3.007059e-001  9.537170e-001
    outer loop
      vertex -5.000000e+000  1.323454e+002  5.731724e+001
      vertex  5.000000e+000  1.306246e+002  5.785979e+001
      vertex  5.000000e+000  1.323454e+002  5.731724e+001
    endloop
  endfacet
  facet normal  0.000000e+000  7.933542e-001  6.087602e-001
    outer loop
      vertex -5.000000e+000  1.323454e+002  5.731724e+001
      vertex  5.000000e+000  1.323454e+002  5.731724e+001
      vertex -5.000000e+000  1.334437e+002  5.588585e+001
    endloop
  endfacet
  facet normal  -0.000000e+000  7.933542e-001  6.087602e-001
    outer loop
      vertex -5.000000e+000  1.334437e+002  5.588585e+001
      vertex  5.000000e+000  1.323454e+002  5.731724e+001
      vertex  5.000000e+000  1.334437e+002  5.588585e+001
    endloop
  endfacet
  facet normal  0.000000e+000 -9.396927e-001  3.420200e-001
    outer loop
      vertex  5.000000e+000  1.130973e+002  5.000000e+001
      vertex  5.000000e+000  1.152395e+002  5.588585e+001
      vertex -5.000000e+000  1.130973e+002  5.000000e+001
    endloop
  endfacet
  facet normal  0.000000e+000 -9.396927e-001  3.420200e-001
    outer loop
      vertex -5.000000e+000  1.130973e+002  5.000000e+001
      vertex  5.000000e+000  1.152395e+002  5.588585e+001
      vertex -5.000000e+000  1.152395e+002  5.588585e+001
    endloop
  endfacet
  facet normal  0.000000e+000  9.396927e-001  3.420200e-001
    outer loop
      vertex  5.000000e+000  1.208777e+002  5.588585e+001
      vertex  5.000000e+000  1.230200e+002  5.000000e+001
      vertex -5.000000e+000  1.208777e+002  5.588585e+001
    endloop
  endfacet
  facet normal  0.000000e+000  9.396927e-001  3.420200e-001
    outer loop
      vertex -5.000000e+000  1.208777e+002  5.588585e+001
      vertex  5.000000e+000  1.230200e+002  5.000000e+001
      vertex -5.000000e+000  1.230200e+002  5.000000e+001
    endloop
  endfacet
  facet normal  0.000000e+000 -7.933522e-001  6.087629e-001
    outer loop
      vertex -5.000000e+000  1.152395e+002  5.588585e+001
      vertex  5.000000e+000  1.152395e+002  5.588585e+001
      vertex -5.000000e+000  1.163379e+002  5.731724e+001
    endloop
  endfacet
  facet normal  0.000000e+000 -7.933522e-001  6.087629e-001
    outer loop
      vertex -5.000000e+000  1.163379e+002  5.731724e+001
      vertex  5.000000e+000  1.152395e+002  5.588585e+001
      vertex  5.000000e+000  1.163379e+002  5.731724e+001
    endloop
  endfacet
  facet normal  0.000000e+000 -3.007071e-001  9.537166e-001
    outer loop
      vertex -5.000000e+000  1.163379e+002  5.731724e+001
      vertex  5.000000e+000  1.163379e+002  5.731724e+001
      vertex -5.000000e+000  1.180586e+002  5.785979e+001
    endloop
  endfacet
  facet normal  0.000000e+000 -3.007071e-001  9.537166e-001
    outer loop
      vertex -5.000000e+000  1.180586e+002  5.785979e+001
      vertex  5.000000e+000  1.163379e+002  5.731724e+001
      vertex  5.000000e+000  1.180586e+002  5.785979e+001
    endloop
  endfacet
  facet normal  0.000000e+000  3.007071e-001  9.537166e-001
    outer loop
      vertex -5.000000e+000  1.180586e+002  5.785979e+001
      vertex  5.000000e+000  1.180586e+002  5.785979e+001
      vertex -5.000000e+000  1.197794e+002  5.731724e+001
    endloop
  endfacet
  facet normal  -0.000000e+000  3.007071e-001  9.537166e-001
    outer loop
      vertex -5.000000e+000  1.197794e+002  5.731724e+001
      vertex  5.000000e+000  1.180586e+002  5.785979e+001
      vertex  5.000000e+000  1.197794e+002  5.731724e+001
    endloop
  endfacet
  facet normal  0.000000e+000  7.933522e-001  6.087629e-001
    outer loop
      vertex -5.000000e+000  1.197794e+002  5.731724e+001
      vertex  5.000000e+000  1.197794e+002  5.731724e+001
      vertex -5.000000e+000  1.208777e+002  5.588585e+001
    endloop
  endfacet
  facet normal  -0.000000e+000  7.933522e-001  6.087629e-001
    outer loop
      vertex -5.000000e+000  1.208777e+002  5.588585e+001
      vertex  5.000000e+000  1.197794e+002  5.731724e+001
      vertex  5.000000e+000  1.208777e+002  5.588585e+001
    endloop
  endfacet
  facet normal  0.000000e+000 -9.396927e-001  3.420200e-001
    outer loop
      vertex  5.000000e+000  1.005313e+002  5.000000e+001
      vertex  5.000000e+000  1.026735e+002  5.588585e+001
      vertex -5.000000e+000  1.005313e+002  5.000000e+001
    endloop
  endfacet
  facet normal  0.000000e+000 -9.396927e-001  3.420200e-001
    outer loop
      vertex -5.000000e+000  1.005313e+002  5.000000e+001
      vertex  5.000000e+000  1.026735e+002  5.588585e+001
      vertex -5.000000e+000  1.026735e+002  5.588585e+001
    endloop
  endfacet
  facet normal  0.000000e+000  9.396927e-001  3.420200e-001
    outer loop
      vertex  5.000000e+000  1.083117e+002  5.588585e+001
      vertex  5.000000e+000  1.104540e+002  5.000000e+001
      vertex -5.000000e+000  1.083117e+002  5.588585e+001
    endloop
  endfacet
  facet normal  0.000000e+000  9.396927e-001  3.420200e-001
    outer loop
      vertex -5.000000e+000  1.083117e+002  5.588585e+001
      vertex  5.000000e+000  1.104540e+002  5.000000e+001
      vertex -5.000000e+000  1.104540e+002  5.000000e+001
    endloop
  endfacet
  facet normal  0.000000e+000 -7.933522e-001  6.087629e-001
    outer loop
      vertex -5.000000e+000  1.026735e+002  5.588585e+001
      vertex  5.000000e+000  1.026735e+002  5.588585e+001
      vertex -5.000000e+000  1.037719e+002  5.731724e+001
    endloop
  endfacet
  facet normal  0.000000e+000 -7.933522e-001  6.087629e-001
    outer loop
      vertex -5.000000e+000  1.037719e+002  5.731724e+001
      vertex  5.000000e+000  1.026735e+002  5.588585e+001
      vertex  5.000000e+000  1.037719e+002  5.731724e+001
    endloop
  endfacet
  facet normal  0.000000e+000 -3.007071e-001  9.537166e-001
    outer loop
      vertex -5.000000e+000  1.037719e+002  5.731724e+001
      vertex  5.000000e+000  1.037719e+002  5.731724e+001
      vertex -5.000000e+000  1.054926e+002  5.785979e+001
    endloop
  endfacet
  facet normal  0.000000e+000 -3.007071e-001  9.537166e-001
    outer loop
      vertex -5.000000e+000  1.054926e+002  5.785979e+001
      vertex  5.000000e+000  1.037719e+002  5.731724e+001
      vertex  5.000000e+000  1.054926e+002  5.785979e+001
    endloop
  endfacet
  facet normal  0.000000e+000  3.007059e-001  9.537170e-001
    outer loop
      vertex -5.000000e+000  1.054926e+002  5.785979e+001
      vertex  5.000000e+000  1.054926e+002  5.785979e+001
      vertex -5.000000e+000  1.072134e+002  5.731724e+001
    endloop
  endfacet
  facet normal  -0.000000e+000  3.007059e-001  9.537170e-001
    outer loop
      vertex -5.000000e+000  1.072134e+002  5.731724e+001
      vertex  5.000000e+000  1.054926e+002  5.785979e+001
      vertex  5.000000e+000  1.072134e+002  5.731724e+001
    endloop
  endfacet
  facet normal  0.000000e+000  7.933542e-001  6.087602e-001
    outer loop
      vertex -5.000000e+000  1.072134e+002  5.731724e+001
      vertex  5.000000e+000  1.072134e+002  5.731724e+001
      vertex -5.000000e+000  1.083117e+002  5.588585e+001
    endloop
  endfacet
  facet normal  -0.000000e+000  7.933542e-001  6.087602e-001
    outer loop
      vertex -5.000000e+000  1.083117e+002  5.588585e+001
      vertex  5.000000e+000  1.072134e+002  5.731724e+001
      vertex  5.000000e+000  1.083117e+002  5.588585e+001
    endloop
  endfacet
  facet normal  0.000000e+000 -9.396927e-001  3.420200e-001
    outer loop
      vertex  5.000000e+000  8.796527e+001  5.000000e+001
      vertex  5.000000e+000  9.010754e+001  5.588585e+001
      vertex -5.000000e+000  8.796527e+001  5.000000e+001
    endloop
  endfacet
  facet normal  0.000000e+000 -9.396927e-001  3.420200e-001
    outer loop
      vertex -5.000000e+000  8.796527e+001  5.000000e+001
      vertex  5.000000e+000  9.010754e+001  5.588585e+001
      vertex -5.000000e+000  9.010754e+001  5.588585e+001
    endloop
  endfacet
  facet normal  0.000000e+000  9.396927e-001  3.420200e-001
    outer loop
      vertex  5.000000e+000  9.574570e+001  5.588585e+001
      vertex  5.000000e+000  9.788798e+001  5.000000e+001
      vertex -5.000000e+000  9.574570e+001  5.588585e+001
    endloop
  endfacet
  facet normal  0.000000e+000  9.396927e-001  3.420200e-001
    outer loop
      vertex -5.000000e+000  9.574570e+001  5.588585e+001
      vertex  5.000000e+000  9.788798e+001  5.000000e+001
      vertex -5.000000e+000  9.788798e+001  5.000000e+001
    endloop
  endfacet
  facet normal  0.000000e+000 -7.933522e-001  6.087629e-001
    outer loop
      vertex -5.000000e+000  9.010754e+001  5.588585e+001
      vertex  5.000000e+000  9.010754e+001  5.588585e+001
      vertex -5.000000e+000  9.120589e+001  5.731724e+001
    endloop
  endfacet
  facet normal  0.000000e+000 -7.933522e-001  6.087629e-001
    outer loop
      vertex -5.000000e+000  9.120589e+001  5.731724e+001
      vertex  5.000000e+000  9.010754e+001  5.588585e+001
      vertex  5.000000e+000  9.120589e+001  5.731724e+001
    endloop
  endfacet
  facet normal  0.000000e+000 -3.007059e-001  9.537170e-001
    outer loop
      vertex -5.000000e+000  9.120589e+001  5.731724e+001
      vertex  5.000000e+000  9.120589e+001  5.731724e+001
      vertex -5.000000e+000  9.292663e+001  5.785979e+001
    endloop
  endfacet
  facet normal  0.000000e+000 -3.007059e-001  9.537170e-001
    outer loop
      vertex -5.000000e+000  9.292663e+001  5.785979e+001
      vertex  5.000000e+000  9.120589e+001  5.731724e+001
      vertex  5.000000e+000  9.292663e+001  5.785979e+001
    endloop
  endfacet
  facet normal  0.000000e+000  3.007071e-001  9.537166e-001
    outer loop
      vertex -5.000000e+000  9.292663e+001  5.785979e+001
      vertex  5.000000e+000  9.292663e+001  5.785979e+001
      vertex -5.000000e+000  9.464735e+001  5.731724e+001
    endloop
  endfacet
  facet normal  -0.000000e+000  3.007071e-001  9.537166e-001
    outer loop
      vertex -5.000000e+000  9.464735e+001  5.731724e+001
      vertex  5.000000e+000  9.292663e+001  5.785979e+001
      vertex  5.000000e+000  9.464735e+001  5.731724e+001
    endloop
  endfacet
  facet normal  0.000000e+000  7.933522e-001  6.087629e-001
    outer loop
      vertex -5.000000e+000  9.464735e+001  5.731724e+001
      vertex  5.000000e+000  9.464735e+001  5.731724e+001
      vertex -5.000000e+000  9.574570e+001  5.588585e+001
    endloop
  endfacet
  facet normal  -0.000000e+000  7.933522e-001  6.087629e-001
    outer loop
      vertex -5.000000e+000  9.574570e+001  5.588585e+001
      vertex  5.000000e+000  9.464735e+001  5.731724e+001
      vertex  5.000000e+000  9.574570e+001  5.588585e+001
    endloop
  endfacet
  facet normal  0.000000e+000 -9.396927e-001  3.420200e-001
    outer loop
      vertex  5.000000e+000  7.539928e+001  5.000000e+001
      vertex  5.000000e+000  7.754155e+001  5.588585e+001
      vertex -5.000000e+000  7.539928e+001  5.000000e+001
    endloop
  endfacet
  facet normal  0.000000e+000 -9.396927e-001  3.420200e-001
    outer loop
      vertex -5.000000e+000  7.539928e+001  5.000000e+001
      vertex  5.000000e+000  7.754155e+001  5.588585e+001
      vertex -5.000000e+000  7.754155e+001  5.588585e+001
    endloop
  endfacet
  facet normal  0.000000e+000  9.396927e-001  3.420200e-001
    outer loop
      vertex  5.000000e+000  8.317970e+001  5.588585e+001
      vertex  5.000000e+000  8.532198e+001  5.000000e+001
      vertex -5.000000e+000  8.317970e+001  5.588585e+001
    endloop
  endfacet
  facet normal  0.000000e+000  9.396927e-001  3.420200e-001
    outer loop
      vertex -5.000000e+000  8.317970e+001  5.588585e+001
      vertex  5.000000e+000  8.532198e+001  5.000000e+001
      vertex -5.000000e+000  8.532198e+001  5.000000e+001
    endloop
  endfacet
  facet normal  0.000000e+000 -7.933542e-001  6.087602e-001
    outer loop
      vertex -5.000000e+000  7.754155e+001  5.588585e+001
      vertex  5.000000e+000  7.754155e+001  5.588585e+001
      vertex -5.000000e+000  7.863989e+001  5.731724e+001
    endloop
  endfacet
  facet normal  0.000000e+000 -7.933542e-001  6.087602e-001
    outer loop
      vertex -5.000000e+000  7.863989e+001  5.731724e+001
      vertex  5.000000e+000  7.754155e+001  5.588585e+001
      vertex  5.000000e+000  7.863989e+001  5.731724e+001
    endloop
  endfacet
  facet normal  0.000000e+000 -3.007059e-001  9.537170e-001
    outer loop
      vertex -5.000000e+000  7.863989e+001  5.731724e+001
      vertex  5.000000e+000  7.863989e+001  5.731724e+001
      vertex -5.000000e+000  8.036063e+001  5.785979e+001
    endloop
  endfacet
  facet normal  0.000000e+000 -3.007059e-001  9.537170e-001
    outer loop
      vertex -5.000000e+000  8.036063e+001  5.785979e+001
      vertex  5.000000e+000  7.863989e+001  5.731724e+001
      vertex  5.000000e+000  8.036063e+001  5.785979e+001
    endloop
  endfacet
  facet normal  0.000000e+000  3.007071e-001  9.537166e-001
    outer loop
      vertex -5.000000e+000  8.036063e+001  5.785979e+001
      vertex  5.000000e+000  8.036063e+001  5.785979e+001
      vertex -5.000000e+000  8.208135e+001  5.731724e+001
    endloop
  endfacet
  facet normal  -0.000000e+000  3.007071e-001  9.537166e-001
    outer loop
      vertex -5.000000e+000  8.208135e+001  5.731724e+001
      vertex  5.000000e+000  8.036063e+001  5.785979e+001
      vertex  5.000000e+000  8.208135e+001  5.731724e+001
    endloop
  endfacet
  facet normal  0.000000e+000  7.933522e-001  6.087629e-001
    outer loop
      vertex -5.000000e+000  8.208135e+001  5.731724e+001
      vertex  5.000000e+000  8.208135e+001  5.731724e+001
      vertex -5.000000e+000  8.317970e+001  5.588585e+001
    endloop
  endfacet
  facet normal  -0.000000e+000  7.933522e-001  6.087629e-001
    outer loop
      vertex -5.000000e+000  8.317970e+001  5.588585e+001
      vertex  5.000000e+000  8.208135e+001  5.731724e+001
      vertex  5.000000e+000  8.317970e+001  5.588585e+001
    endloop
  endfacet
  facet normal  0.000000e+000 -9.396927e-001  3.420200e-001
    outer loop
      vertex  5.000000e+000  6.283327e+001  5.000000e+001
      vertex  5.000000e+000  6.497555e+001  5.588585e+001
      vertex -5.000000e+000  6.283327e+001  5.000000e+001
    endloop
  endfacet
  facet normal  0.000000e+000 -9.396927e-001  3.420200e-001
    outer loop
      vertex -5.000000e+000  6.283327e+001  5.000000e+001
      vertex  5.000000e+000  6.497555e+001  5.588585e+001
      vertex -5.000000e+000  6.497555e+001  5.588585e+001
    endloop
  endfacet
  facet normal  0.000000e+000  9.396927e-001  3.420200e-001
    outer loop
      vertex  5.000000e+000  7.061370e+001  5.588585e+001
      vertex  5.000000e+000  7.275597e+001  5.000000e+001
      vertex -5.000000e+000  7.061370e+001  5.588585e+001
    endloop
  endfacet
  facet normal  0.000000e+000  9.396927e-001  3.420200e-001
    outer loop
      vertex -5.000000e+000  7.061370e+001  5.588585e+001
      vertex  5.000000e+000  7.275597e+001  5.000000e+001
      vertex -5.000000e+000  7.275597e+001  5.000000e+001
    endloop
  endfacet
  facet normal  0.000000e+000 -7.933522e-001  6.087629e-001
    outer loop
      vertex -5.000000e+000  6.497555e+001  5.588585e+001
      vertex  5.000000e+000  6.497555e+001  5.588585e+001
      vertex -5.000000e+000  6.607390e+001  5.731724e+001
    endloop
  endfacet
  facet normal  0.000000e+000 -7.933522e-001  6.087629e-001
    outer loop
      vertex -5.000000e+000  6.607390e+001  5.731724e+001
      vertex  5.000000e+000  6.497555e+001  5.588585e+001
      vertex  5.000000e+000  6.607390e+001  5.731724e+001
    endloop
  endfacet
  facet normal  0.000000e+000 -3.007071e-001  9.537166e-001
    outer loop
      vertex -5.000000e+000  6.607390e+001  5.731724e+001
      vertex  5.000000e+000  6.607390e+001  5.731724e+001
      vertex -5.000000e+000  6.779462e+001  5.785979e+001
    endloop
  endfacet
  facet normal  0.000000e+000 -3.007071e-001  9.537166e-001
    outer loop
      vertex -5.000000e+000  6.779462e+001  5.785979e+001
      vertex  5.000000e+000  6.607390e+001  5.731724e+001
      vertex  5.000000e+000  6.779462e+001  5.785979e+001
    endloop
  endfacet
  facet normal  0.000000e+000  3.007071e-001  9.537166e-001
    outer loop
      vertex -5.000000e+000  6.779462e+001  5.785979e+001
      vertex  5.000000e+000  6.779462e+001  5.785979e+001
      vertex -5.000000e+000  6.951535e+001  5.731724e+001
    endloop
  endfacet
  facet normal  -0.000000e+000  3.007071e-001  9.537166e-001
    outer loop
      vertex -5.000000e+000  6.951535e+001  5.731724e+001
      vertex  5.000000e+000  6.779462e+001  5.785979e+001
      vertex  5.000000e+000  6.951535e+001  5.731724e+001
    endloop
  endfacet
  facet normal  0.000000e+000  7.933522e-001  6.087629e-001
    outer loop
      vertex -5.000000e+000  6.951535e+001  5.731724e+001
      vertex  5.000000e+000  6.951535e+001  5.731724e+001
      vertex -5.000000e+000  7.061370e+001  5.588585e+001
    endloop
  endfacet
  facet normal  -0.000000e+000  7.933522e-001  6.087629e-001
    outer loop
      vertex -5.000000e+000  7.061370e+001  5.588585e+001
      vertex  5.000000e+000  6.951535e+001  5.731724e+001
      vertex  5.000000e+000  7.061370e+001  5.588585e+001
    endloop
  endfacet
  facet normal  0.000000e+000 -9.396927e-001  3.420200e-001
    outer loop
      vertex  5.000000e+000  5.026727e+001  5.000000e+001
      vertex  5.000000e+000  5.240955e+001  5.588585e+001
      vertex -5.000000e+000  5.026727e+001  5.000000e+001
    endloop
  endfacet
  facet normal  0.000000e+000 -9.396927e-001  3.420200e-001
    outer loop
      vertex -5.000000e+000  5.026727e+001  5.000000e+001
      vertex  5.000000e+000  5.240955e+001  5.588585e+001
      vertex -5.000000e+000  5.240955e+001  5.588585e+001
    endloop
  endfacet
  facet normal  0.000000e+000  9.396927e-001  3.420200e-001
    outer loop
      vertex  5.000000e+000  5.804770e+001  5.588585e+001
      vertex  5.000000e+000  6.018998e+001  5.000000e+001
      vertex -5.000000e+000  5.804770e+001  5.588585e+001
    endloop
  endfacet
  facet normal  0.000000e+000  9.396927e-001  3.420200e-001
    outer loop
      vertex -5.000000e+000  5.804770e+001  5.588585e+001
      vertex  5.000000e+000  6.018998e+001  5.000000e+001
      vertex -5.000000e+000  6.018998e+001  5.000000e+001
    endloop
  endfacet
  facet normal  0.000000e+000 -7.933522e-001  6.087629e-001
    outer loop
      vertex -5.000000e+000  5.240955e+001  5.588585e+001
      vertex  5.000000e+000  5.240955e+001  5.588585e+001
      vertex -5.000000e+000  5.350790e+001  5.731724e+001
    endloop
  endfacet
  facet normal  0.000000e+000 -7.933522e-001  6.087629e-001
    outer loop
      vertex -5.000000e+000  5.350790e+001  5.731724e+001
      vertex  5.000000e+000  5.240955e+001  5.588585e+001
      vertex  5.000000e+000  5.350790e+001  5.731724e+001
    endloop
  endfacet
  facet normal  0.000000e+000 -3.007065e-001  9.537168e-001
    outer loop
      vertex -5.000000e+000  5.350790e+001  5.731724e+001
      vertex  5.000000e+000  5.350790e+001  5.731724e+001
      vertex -5.000000e+000  5.522863e+001  5.785979e+001
    endloop
  endfacet
  facet normal  0.000000e+000 -3.007065e-001  9.537168e-001
    outer loop
      vertex -5.000000e+000  5.522863e+001  5.785979e+001
      vertex  5.000000e+000  5.350790e+001  5.731724e+001
      vertex  5.000000e+000  5.522863e+001  5.785979e+001
    endloop
  endfacet
  facet normal  0.000000e+000  3.007071e-001  9.537166e-001
    outer loop
      vertex -5.000000e+000  5.522863e+001  5.785979e+001
      vertex  5.000000e+000  5.522863e+001  5.785979e+001
      vertex -5.000000e+000  5.694935e+001  5.731724e+001
    endloop
  endfacet
  facet normal  -0.000000e+000  3.007071e-001  9.537166e-001
    outer loop
      vertex -5.000000e+000  5.694935e+001  5.731724e+001
      vertex  5.000000e+000  5.522863e+001  5.785979e+001
      vertex  5.000000e+000  5.694935e+001  5.731724e+001
    endloop
  endfacet
  facet normal  0.000000e+000  7.933522e-001  6.087629e-001
    outer loop
      vertex -5.000000e+000  5.694935e+001  5.731724e+001
      vertex  5.000000e+000  5.694935e+001  5.731724e+001
      vertex -5.000000e+000  5.804770e+001  5.588585e+001
    endloop
  endfacet
  facet normal  -0.000000e+000  7.933522e-001  6.087629e-001
    outer loop
      vertex -5.000000e+000  5.804770e+001  5.588585e+001
      vertex  5.000000e+000  5.694935e+001  5.731724e+001
      vertex  5.000000e+000  5.804770e+001  5.588585e+001
    endloop
  endfacet
  facet normal  0.000000e+000 -9.396927e-001  3.420200e-001
    outer loop
      vertex  5.000000e+000  3.770127e+001  5.000000e+001
      vertex  5.000000e+000  3.984355e+001  5.588585e+001
      vertex -5.000000e+000  3.770127e+001  5.000000e+001
    endloop
  endfacet
  facet normal  0.000000e+000 -9.396927e-001  3.420200e-001
    outer loop
      vertex -5.000000e+000  3.770127e+001  5.000000e+001
      vertex  5.000000e+000  3.984355e+001  5.588585e+001
      vertex -5.000000e+000  3.984355e+001  5.588585e+001
    endloop
  endfacet
  facet normal  0.000000e+000  9.396927e-001  3.420200e-001
    outer loop
      vertex  5.000000e+000  4.548170e+001  5.588585e+001
      vertex  5.000000e+000  4.762397e+001  5.000000e+001
      vertex -5.000000e+000  4.548170e+001  5.588585e+001
    endloop
  endfacet
  facet normal  0.000000e+000  9.396927e-001  3.420200e-001
    outer loop
      vertex -5.000000e+000  4.548170e+001  5.588585e+001
      vertex  5.000000e+000  4.762397e+001  5.000000e+001
      vertex -5.000000e+000  4.762397e+001  5.000000e+001
    endloop
  endfacet
  facet normal  0.000000e+000 -7.933532e-001  6.087616e-001
    outer loop
      vertex -5.000000e+000  3.984355e+001  5.588585e+001
      vertex  5.000000e+000  3.984355e+001  5.588585e+001
      vertex -5.000000e+000  4.094189e+001  5.731724e+001
    endloop
  endfacet
  facet normal  0.000000e+000 -7.933532e-001  6.087616e-001
    outer loop
      vertex -5.000000e+000  4.094189e+001  5.731724e+001
      vertex  5.000000e+000  3.984355e+001  5.588585e+001
      vertex  5.000000e+000  4.094189e+001  5.731724e+001
    endloop
  endfacet
  facet normal  0.000000e+000 -3.007065e-001  9.537168e-001
    outer loop
      vertex -5.000000e+000  4.094189e+001  5.731724e+001
      vertex  5.000000e+000  4.094189e+001  5.731724e+001
      vertex -5.000000e+000  4.266262e+001  5.785979e+001
    endloop
  endfacet
  facet normal  0.000000e+000 -3.007065e-001  9.537168e-001
    outer loop
      vertex -5.000000e+000  4.266262e+001  5.785979e+001
      vertex  5.000000e+000  4.094189e+001  5.731724e+001
      vertex  5.000000e+000  4.266262e+001  5.785979e+001
    endloop
  endfacet
  facet normal  0.000000e+000  3.007065e-001  9.537168e-001
    outer loop
      vertex -5.000000e+000  4.266262e+001  5.785979e+001
      vertex  5.000000e+000  4.266262e+001  5.785979e+001
      vertex -5.000000e+000  4.438335e+001  5.731724e+001
    endloop
  endfacet
  facet normal  -0.000000e+000  3.007065e-001  9.537168e-001
    outer loop
      vertex -5.000000e+000  4.438335e+001  5.731724e+001
      vertex  5.000000e+000  4.266262e+001  5.785979e+001
      vertex  5.000000e+000  4.438335e+001  5.731724e+001
    endloop
  endfacet
  facet normal  0.000000e+000  7.933532e-001  6.087616e-001
    outer loop
      vertex -5.000000e+000  4.438335e+001  5.731724e+001
      vertex  5.000000e+000  4.438335e+001  5.731724e+001
      vertex -5.000000e+000  4.548170e+001  5.588585e+001
    endloop
  endfacet
  facet normal  -0.000000e+000  7.933532e-001  6.087616e-001
    outer loop
      vertex -5.000000e+000  4.548170e+001  5.588585e+001
      vertex  5.000000e+000  4.438335e+001  5.731724e+001
      vertex  5.000000e+000  4.548170e+001  5.588585e+001
    endloop
  endfacet
  facet normal  0.000000e+000 -9.396927e-001  3.420200e-001
    outer loop
      vertex  5.000000e+000  2.513527e+001  5.000000e+001
      vertex  5.000000e+000  2.727755e+001  5.588585e+001
      vertex -5.000000e+000  2.513527e+001  5.000000e+001
    endloop
  endfacet
  facet normal  0.000000e+000 -9.396927e-001  3.420200e-001
    outer loop
      vertex -5.000000e+000  2.513527e+001  5.000000e+001
      vertex  5.000000e+000  2.727755e+001  5.588585e+001
      vertex -5.000000e+000  2.727755e+001  5.588585e+001
    endloop
  endfacet
  facet normal  0.000000e+000  9.396927e-001  3.420200e-001
    outer loop
      vertex  5.000000e+000  3.291570e+001  5.588585e+001
      vertex  5.000000e+000  3.505798e+001  5.000000e+001
      vertex -5.000000e+000  3.291570e+001  5.588585e+001
    endloop
  endfacet
  facet normal  0.000000e+000  9.396927e-001  3.420200e-001
    outer loop
      vertex -5.000000e+000  3.291570e+001  5.588585e+001
      vertex  5.000000e+000  3.505798e+001  5.000000e+001
      vertex -5.000000e+000  3.505798e+001  5.000000e+001
    endloop
  endfacet
  facet normal  0.000000e+000 -7.933527e-001  6.087623e-001
    outer loop
      vertex -5.000000e+000  2.727755e+001  5.588585e+001
      vertex  5.000000e+000  2.727755e+001  5.588585e+001
      vertex -5.000000e+000  2.837589e+001  5.731724e+001
    endloop
  endfacet
  facet normal  0.000000e+000 -7.933527e-001  6.087623e-001
    outer loop
      vertex -5.000000e+000  2.837589e+001  5.731724e+001
      vertex  5.000000e+000  2.727755e+001  5.588585e+001
      vertex  5.000000e+000  2.837589e+001  5.731724e+001
    endloop
  endfacet
  facet normal  0.000000e+000 -3.007065e-001  9.537168e-001
    outer loop
      vertex -5.000000e+000  2.837589e+001  5.731724e+001
      vertex  5.000000e+000  2.837589e+001  5.731724e+001
      vertex -5.000000e+000  3.009662e+001  5.785979e+001
    endloop
  endfacet
  facet normal  0.000000e+000 -3.007065e-001  9.537168e-001
    outer loop
      vertex -5.000000e+000  3.009662e+001  5.785979e+001
      vertex  5.000000e+000  2.837589e+001  5.731724e+001
      vertex  5.000000e+000  3.009662e+001  5.785979e+001
    endloop
  endfacet
  facet normal  0.000000e+000  3.007065e-001  9.537168e-001
    outer loop
      vertex -5.000000e+000  3.009662e+001  5.785979e+001
      vertex  5.000000e+000  3.009662e+001  5.785979e+001
      vertex -5.000000e+000  3.181735e+001  5.731724e+001
    endloop
  endfacet
  facet normal  -0.000000e+000  3.007065e-001  9.537168e-001
    outer loop
      vertex -5.000000e+000  3.181735e+001  5.731724e+001
      vertex  5.000000e+000  3.009662e+001  5.785979e+001
      vertex  5.000000e+000  3.181735e+001  5.731724e+001
    endloop
  endfacet
  facet normal  0.000000e+000  7.933527e-001  6.087623e-001
    outer loop
      vertex -5.000000e+000  3.181735e+001  5.731724e+001
      vertex  5.000000e+000  3.181735e+001  5.731724e+001
      vertex -5.000000e+000  3.291570e+001  5.588585e+001
    endloop
  endfacet
  facet normal  -0.000000e+000  7.933527e-001  6.087623e-001
    outer loop
      vertex -5.000000e+000  3.291570e+001  5.588585e+001
      vertex  5.000000e+000  3.181735e+001  5.731724e+001
      vertex  5.000000e+000  3.291570e+001  5.588585e+001
    endloop
  endfacet
  facet normal  0.000000e+000 -9.396926e-001  3.420201e-001
    outer loop
      vertex  5.000000e+000  1.256927e+001  5.000000e+001
      vertex  5.000000e+000  1.471155e+001  5.588585e+001
      vertex -5.000000e+000  1.256927e+001  5.000000e+001
    endloop
  endfacet
  facet normal  0.000000e+000 -9.396926e-001  3.420201e-001
    outer loop
      vertex -5.000000e+000  1.256927e+001  5.000000e+001
      vertex  5.000000e+000  1.471155e+001  5.588585e+001
      vertex -5.000000e+000  1.471155e+001  5.588585e+001
    endloop
  endfacet
  facet normal  0.000000e+000  9.396927e-001  3.420200e-001
    outer loop
      vertex  5.000000e+000  2.034970e+001  5.588585e+001
      vertex  5.000000e+000  2.249198e+001  5.000000e+001
      vertex -5.000000e+000  2.034970e+001  5.588585e+001
    endloop
  endfacet
  facet normal  0.000000e+000  9.396927e-001  3.420200e-001
    outer loop
      vertex -5.000000e+000  2.034970e+001  5.588585e+001
      vertex  5.000000e+000  2.249198e+001  5.000000e+001
      vertex -5.000000e+000  2.249198e+001  5.000000e+001
    endloop
  endfacet
  facet normal  0.000000e+000 -7.933527e-001  6.087623e-001
    outer loop
      vertex -5.000000e+000  1.471155e+001  5.588585e+001
      vertex  5.000000e+000  1.471155e+001  5.588585e+001
      vertex -5.000000e+000  1.580990e+001  5.731724e+001
    endloop
  endfacet
  facet normal  0.000000e+000 -7.933527e-001  6.087623e-001
    outer loop
      vertex -5.000000e+000  1.580990e+001  5.731724e+001
      vertex  5.000000e+000  1.471155e+001  5.588585e+001
      vertex  5.000000e+000  1.580990e+001  5.731724e+001
    endloop
  endfacet
  facet normal  0.000000e+000 -3.007066e-001  9.537166e-001
    outer loop
      vertex -5.000000e+000  1.580990e+001  5.731724e+001
      vertex  5.000000e+000  1.580990e+001  5.731724e+001
      vertex -5.000000e+000  1.753062e+001  5.785979e+001
    endloop
  endfacet
  facet normal  0.000000e+000 -3.007066e-001  9.537166e-001
    outer loop
      vertex -5.000000e+000  1.753062e+001  5.785979e+001
      vertex  5.000000e+000  1.580990e+001  5.731724e+001
      vertex  5.000000e+000  1.753062e+001  5.785979e+001
    endloop
  endfacet
  facet normal  0.000000e+000  3.007065e-001  9.537168e-001
    outer loop
      vertex -5.000000e+000  1.753062e+001  5.785979e+001
      vertex  5.000000e+000  1.753062e+001  5.785979e+001
      vertex -5.000000e+000  1.925135e+001  5.731724e+001
    endloop
  endfacet
  facet normal  -0.000000e+000  3.007065e-001  9.537168e-001
    outer loop
      vertex -5.000000e+000  1.925135e+001  5.731724e+001
      vertex  5.000000e+000  1.753062e+001  5.785979e+001
      vertex  5.000000e+000  1.925135e+001  5.731724e+001
    endloop
  endfacet
  facet normal  0.000000e+000  7.933527e-001  6.087623e-001
    outer loop
      vertex -5.000000e+000  1.925135e+001  5.731724e+001
      vertex  5.000000e+000  1.925135e+001  5.731724e+001
      vertex -5.000000e+000  2.034970e+001  5.588585e+001
    endloop
  endfacet
  facet normal  -0.000000e+000  7.933527e-001  6.087623e-001
    outer loop
      vertex -5.000000e+000  2.034970e+001  5.588585e+001
      vertex  5.000000e+000  1.925135e+001  5.731724e+001
      vertex  5.000000e+000  2.034970e+001  5.588585e+001
    endloop
  endfacet
  facet normal  0.000000e+000  1.000000e+000  0.000000e+000
    outer loop
      vertex -5.000000e+000  1.382293e+002  5.000000e+001
      vertex  5.000000e+000  1.382293e+002  5.000000e+001
      vertex -5.000000e+000  1.382293e+002 -1.224715e-014
    endloop
  endfacet
  facet normal  0.000000e+000  1.000000e+000  0.000000e+000
    outer loop
      vertex -5.000000e+000  1.382293e+002 -1.224715e-014
      vertex  5.000000e+000  1.382293e+002  5.000000e+001
      vertex  5.000000e+000  1.382293e+002 -1.224715e-014
    endloop
  endfacet
  facet normal  0.000000e+000  0.000000e+000 -1.000000e+000
    outer loop
      vertex  5.000000e+000  1.382293e+002 -1.224715e-014
      vertex  5.000000e+000  0.000000e+000 -1.224715e-014
      vertex -5.000000e+000  1.382293e+002 -1.224715e-014
    endloop
  endfacet
  facet normal  0.000000e+000  0.000000e+000 -1.000000e+000
    outer loop
      vertex -5.000000e+000  1.382293e+002 -1.224715e-014
      vertex  5.000000e+000  0.000000e+000 -1.224715e-014
      vertex -5.000000e+000  0.000000e+000 -1.224715e-014
    endloop
  endfacet
  facet normal  0.000000e+000  0.000000e+000  1.000000e+000
    outer loop
      vertex  5.000000e+000  1.355860e+002  5.000000e+001
      vertex  5.000000e+000  1.382293e+002  5.000000e+001
      vertex -5.000000e+000  1.355860e+002  5.000000e+001
    endloop
  endfacet
  facet normal  0.000000e+000  0.000000e+000  1.000000e+000
    outer loop
      vertex -5.000000e+000  1.355860e+002  5.000000e+001
      vertex  5.000000e+000  1.382293e+002  5.000000e+001
      vertex -5.000000e+000  1.382293e+002  5.000000e+001
    endloop
  endfacet
  facet normal  0.000000e+000  0.000000e+000  9.999999e-001
    outer loop
      vertex  5.000000e+000  1.230200e+002  5.000000e+001
      vertex  5.000000e+000  1.256633e+002  5.000000e+001
      vertex -5.000000e+000  1.230200e+002  5.000000e+001
    endloop
  endfacet
  facet normal  0.000000e+000  0.000000e+000  9.999999e-001
    outer loop
      vertex -5.000000e+000  1.230200e+002  5.000000e+001
      vertex  5.000000e+000  1.256633e+002  5.000000e+001
      vertex -5.000000e+000  1.256633e+002  5.000000e+001
    endloop
  endfacet
  facet normal  0.000000e+000  0.000000e+000  9.999999e-001
    outer loop
      vertex  5.000000e+000  1.104540e+002  5.000000e+001
      vertex  5.000000e+000  1.130973e+002  5.000000e+001
      vertex -5.000000e+000  1.104540e+002  5.000000e+001
    endloop
  endfacet
  facet normal  0.000000e+000  0.000000e+000  9.999999e-001
    outer loop
      vertex -5.000000e+000  1.104540e+002  5.000000e+001
      vertex  5.000000e+000  1.130973e+002  5.000000e+001
      vertex -5.000000e+000  1.130973e+002  5.000000e+001
    endloop
  endfacet
  facet normal  0.000000e+000  0.000000e+000  1.000000e+000
    outer loop
      vertex  5.000000e+000  9.788798e+001  5.000000e+001
      vertex  5.000000e+000  1.005313e+002  5.000000e+001
      vertex -5.000000e+000  9.788798e+001  5.000000e+001
    endloop
  endfacet
  facet normal  0.000000e+000  0.000000e+000  1.000000e+000
    outer loop
      vertex -5.000000e+000  9.788798e+001  5.000000e+001
      vertex  5.000000e+000  1.005313e+002  5.000000e+001
      vertex -5.000000e+000  1.005313e+002  5.000000e+001
    endloop
  endfacet
  facet normal  0.000000e+000  0.000000e+000  1.000000e+000
    outer loop
      vertex  5.000000e+000  8.532198e+001  5.000000e+001
      vertex  5.000000e+000  8.796527e+001  5.000000e+001
      vertex -5.000000e+000  8.532198e+001  5.000000e+001
    endloop
  endfacet
  facet normal  0.000000e+000  0.000000e+000  1.000000e+000
    outer loop
      vertex -5.000000e+000  8.532198e+001  5.000000e+001
      vertex  5.000000e+000  8.796527e+001  5.000000e+001
      vertex -5.000000e+000  8.796527e+001  5.000000e+001
    endloop
  endfacet
  facet normal  0.000000e+000  0.000000e+000  9.999999e-001
    outer loop
      vertex  5.000000e+000  7.275597e+001  5.000000e+001
      vertex  5.000000e+000  7.539928e+001  5.000000e+001
      vertex -5.000000e+000  7.275597e+001  5.000000e+001
    endloop
  endfacet
  facet normal  0.000000e+000  0.000000e+000  9.999999e-001
    outer loop
      vertex -5.000000e+000  7.275597e+001  5.000000e+001
      vertex  5.000000e+000  7.539928e+001  5.000000e+001
      vertex -5.000000e+000  7.539928e+001  5.000000e+001
    endloop
  endfacet
  facet normal  0.000000e+000  0.000000e+000  1.000000e+000
    outer loop
      vertex  5.000000e+000  6.018998e+001  5.000000e+001
      vertex  5.000000e+000  6.283327e+001  5.000000e+001
      vertex -5.000000e+000  6.018998e+001  5.000000e+001
    endloop
  endfacet
  facet normal  0.000000e+000  0.000000e+000  1.000000e+000
    outer loop
      vertex -5.000000e+000  6.018998e+001  5.000000e+001
      vertex  5.000000e+000  6.283327e+001  5.000000e+001
      vertex -5.000000e+000  6.283327e+001  5.000000e+001
    endloop
  endfacet
  facet normal  0.000000e+000  0.000000e+000  1.000000e+000
    outer loop
      vertex  5.000000e+000  4.762397e+001  5.000000e+001
      vertex  5.000000e+000  5.026727e+001  5.000000e+001
      vertex -5.000000e+000  4.762397e+001  5.000000e+001
    endloop
  endfacet
  facet normal  0.000000e+000  0.000000e+000  1.000000e+000
    outer loop
      vertex -5.000000e+000  4.762397e+001  5.000000e+001
      vertex  5.000000e+000  5.026727e+001  5.000000e+001
      vertex -5.000000e+000  5.026727e+001  5.000000e+001
    endloop
  endfacet
  facet normal  0.000000e+000  0.000000e+000  1.000000e+000
    outer loop
      vertex  5.000000e+000  3.505798e+001  5.000000e+001
      vertex  5.000000e+000  3.770127e+001  5.000000e+001
      vertex -5.000000e+000  3.505798e+001  5.000000e+001
    endloop
  endfacet
  facet normal  0.000000e+000  0.000000e+000  1.000000e+000
    outer loop
      vertex -5.000000e+000  3.505798e+001  5.000000e+001
      vertex  5.000000e+000  3.770127e+001  5.000000e+001
      vertex -5.000000e+000  3.770127e+001  5.000000e+001
    endloop
  endfacet
  facet normal  0.000000e+000  0.000000e+000  9.999999e-001
    outer loop
      vertex  5.000000e+000  9.925976e+000  5.000000e+001
      vertex  5.000000e+000  1.256927e+001  5.000000e+001
      vertex -5.000000e+000  9.925976e+000  5.000000e+001
    endloop
  endfacet
  facet normal  0.000000e+000  0.000000e+000  9.999999e-001
    outer loop
      vertex -5.000000e+000  9.925976e+000  5.000000e+001
      vertex  5.000000e+000  1.256927e+001  5.000000e+001
      vertex -5.000000e+000  1.256927e+001  5.000000e+001
    endloop
  endfacet
  facet normal  0.000000e+000  0.000000e+000  9.999999e-001
    outer loop
      vertex  5.000000e+000  2.249198e+001  5.000000e+001
      vertex  5.000000e+000  2.513527e+001  5.000000e+001
      vertex -5.000000e+000  2.249198e+001  5.000000e+001
    endloop
  endfacet
  facet normal  0.000000e+000  0.000000e+000  9.999999e-001
    outer loop
      vertex -5.000000e+000  2.249198e+001  5.000000e+001
      vertex  5.000000e+000  2.513527e+001  5.000000e+001
      vertex -5.000000e+000  2.513527e+001  5.000000e+001
    endloop
  endfacet
  facet normal  0.000000e+000 -9.396927e-001  3.420201e-001
    outer loop
      vertex  5.000000e+000  3.273327e-003  5.000000e+001
      vertex  5.000000e+000  2.145547e+000  5.588585e+001
      vertex -5.000000e+000  3.273327e-003  5.000000e+001
    endloop
  endfacet
  facet normal  0.000000e+000 -9.396927e-001  3.420201e-001
    outer loop
      vertex -5.000000e+000  3.273327e-003  5.000000e+001
      vertex  5.000000e+000  2.145547e+000  5.588585e+001
      vertex -5.000000e+000  2.145547e+000  5.588585e+001
    endloop
  endfacet
  facet normal  0.000000e+000  9.396927e-001  3.420201e-001
    outer loop
      vertex  5.000000e+000  7.783702e+000  5.588585e+001
      vertex  5.000000e+000  9.925976e+000  5.000000e+001
      vertex -5.000000e+000  7.783702e+000  5.588585e+001
    endloop
  endfacet
  facet normal  0.000000e+000  9.396927e-001  3.420201e-001
    outer loop
      vertex -5.000000e+000  7.783702e+000  5.588585e+001
      vertex  5.000000e+000  9.925976e+000  5.000000e+001
      vertex -5.000000e+000  9.925976e+000  5.000000e+001
    endloop
  endfacet
  facet normal  0.000000e+000 -7.933527e-001  6.087623e-001
    outer loop
      vertex -5.000000e+000  2.145547e+000  5.588585e+001
      vertex  5.000000e+000  2.145547e+000  5.588585e+001
      vertex -5.000000e+000  3.243895e+000  5.731724e+001
    endloop
  endfacet
  facet normal  0.000000e+000 -7.933527e-001  6.087623e-001
    outer loop
      vertex -5.000000e+000  3.243895e+000  5.731724e+001
      vertex  5.000000e+000  2.145547e+000  5.588585e+001
      vertex  5.000000e+000  3.243895e+000  5.731724e+001
    endloop
  endfacet
  facet normal  0.000000e+000 -3.007065e-001  9.537166e-001
    outer loop
      vertex -5.000000e+000  3.243895e+000  5.731724e+001
      vertex  5.000000e+000  3.243895e+000  5.731724e+001
      vertex -5.000000e+000  4.964624e+000  5.785979e+001
    endloop
  endfacet
  facet normal  0.000000e+000 -3.007065e-001  9.537166e-001
    outer loop
      vertex -5.000000e+000  4.964624e+000  5.785979e+001
      vertex  5.000000e+000  3.243895e+000  5.731724e+001
      vertex  5.000000e+000  4.964624e+000  5.785979e+001
    endloop
  endfacet
  facet normal  0.000000e+000  3.007065e-001  9.537168e-001
    outer loop
      vertex -5.000000e+000  4.964624e+000  5.785979e+001
      vertex  5.000000e+000  4.964624e+000  5.785979e+001
      vertex -5.000000e+000  6.685354e+000  5.731724e+001
    endloop
  endfacet
  facet normal  -0.000000e+000  3.007065e-001  9.537168e-001
    outer loop
      vertex -5.000000e+000  6.685354e+000  5.731724e+001
      vertex  5.000000e+000  4.964624e+000  5.785979e+001
      vertex  5.000000e+000  6.685354e+000  5.731724e+001
    endloop
  endfacet
  facet normal  0.000000e+000  7.933527e-001  6.087623e-001
    outer loop
      vertex -5.000000e+000  6.685354e+000  5.731724e+001
      vertex  5.000000e+000  6.685354e+000  5.731724e+001
      vertex -5.000000e+000  7.783702e+000  5.588585e+001
    endloop
  endfacet
  facet normal  -0.000000e+000  7.933527e-001  6.087623e-001
    outer loop
      vertex -5.000000e+000  7.783702e+000  5.588585e+001
      vertex  5.000000e+000  6.685354e+000  5.731724e+001
      vertex  5.000000e+000  7.783702e+000  5.588585e+001
    endloop
  endfacet
  facet normal  0.000000e+000 -1.000000e+000  0.000000e+000
    outer loop
      vertex  5.000000e+000  0.000000e+000  5.000000e+001
      vertex -5.000000e+000  0.000000e+000  5.000000e+001
      vertex  5.000000e+000  0.000000e+000 -1.224715e-014
    endloop
  endfacet
  facet normal  0.000000e+000 -1.000000e+000  0.000000e+000
    outer loop
      vertex  5.000000e+000  0.000000e+000 -1.224715e-014
      vertex -5.000000e+000  0.000000e+000  5.000000e+001
      vertex -5.000000e+000  0.000000e+000 -1.224715e-014
    endloop
  endfacet
  facet normal  0.000000e+000  0.000000e+000  1.000000e+000
    outer loop
      vertex  5.000000e+000  0.000000e+000  5.000000e+001
      vertex  5.000000e+000  3.273327e-003  5.000000e+001
      vertex -5.000000e+000  0.000000e+000  5.000000e+001
    endloop
  endfacet
  facet normal  0.000000e+000  0.000000e+000  1.000000e+000
    outer loop
      vertex -5.000000e+000  0.000000e+000  5.000000e+001
      vertex  5.000000e+000  3.273327e-003  5.000000e+001
      vertex -5.000000e+000  3.273327e-003  5.000000e+001
    endloop
  endfacet
endsolid CATIA STL
