solid CATIA STL
  facet normal  -0.000000e+000 -3.826835e-001 -9.238796e-001
    outer loop
      vertex  1.000000e+000  1.000000e+000  0.000000e+000
      vertex  1.990000e+002  1.000000e+000  0.000000e+000
      vertex  1.000000e+000  2.928932e-001  2.928932e-001
    endloop
  endfacet
  facet normal  0.000000e+000 -3.826835e-001 -9.238796e-001
    outer loop
      vertex  1.000000e+000  2.928932e-001  2.928932e-001
      vertex  1.990000e+002  1.000000e+000  0.000000e+000
      vertex  1.990000e+002  2.928932e-001  2.928932e-001
    endloop
  endfacet
  facet normal  -0.000000e+000 -9.238796e-001 -3.826835e-001
    outer loop
      vertex  1.000000e+000  2.928932e-001  2.928932e-001
      vertex  1.990000e+002  2.928932e-001  2.928932e-001
      vertex  1.000000e+000  0.000000e+000  1.000000e+000
    endloop
  endfacet
  facet normal  0.000000e+000 -9.238796e-001 -3.826835e-001
    outer loop
      vertex  1.000000e+000  0.000000e+000  1.000000e+000
      vertex  1.990000e+002  2.928932e-001  2.928932e-001
      vertex  1.990000e+002  0.000000e+000  1.000000e+000
    endloop
  endfacet
  facet normal  0.000000e+000  0.000000e+000 -1.000000e+000
    outer loop
      vertex  1.000000e+000  1.000000e+000  0.000000e+000
      vertex  1.000000e+000  1.490000e+002  0.000000e+000
      vertex  1.990000e+002  1.000000e+000  0.000000e+000
    endloop
  endfacet
  facet normal  0.000000e+000  0.000000e+000 -1.000000e+000
    outer loop
      vertex  1.990000e+002  1.000000e+000  0.000000e+000
      vertex  1.000000e+000  1.490000e+002  0.000000e+000
      vertex  1.990000e+002  1.490000e+002  0.000000e+000
    endloop
  endfacet
  facet normal  0.000000e+000 -1.000000e+000  0.000000e+000
    outer loop
      vertex  1.000000e+000  0.000000e+000  4.000000e+000
      vertex  1.000000e+000  0.000000e+000  1.000000e+000
      vertex  1.990000e+002  0.000000e+000  4.000000e+000
    endloop
  endfacet
  facet normal  0.000000e+000 -1.000000e+000  -0.000000e+000
    outer loop
      vertex  1.990000e+002  0.000000e+000  4.000000e+000
      vertex  1.000000e+000  0.000000e+000  1.000000e+000
      vertex  1.990000e+002  0.000000e+000  1.000000e+000
    endloop
  endfacet
  facet normal  0.000000e+000  3.826831e-001 -9.238797e-001
    outer loop
      vertex  1.990000e+002  1.490000e+002  0.000000e+000
      vertex  1.000000e+000  1.490000e+002  0.000000e+000
      vertex  1.990000e+002  1.497071e+002  2.928932e-001
    endloop
  endfacet
  facet normal  0.000000e+000  3.826831e-001 -9.238797e-001
    outer loop
      vertex  1.990000e+002  1.497071e+002  2.928932e-001
      vertex  1.000000e+000  1.490000e+002  0.000000e+000
      vertex  1.000000e+000  1.497071e+002  2.928932e-001
    endloop
  endfacet
  facet normal  0.000000e+000  9.238799e-001 -3.826826e-001
    outer loop
      vertex  1.990000e+002  1.497071e+002  2.928932e-001
      vertex  1.000000e+000  1.497071e+002  2.928932e-001
      vertex  1.990000e+002  1.500000e+002  1.000000e+000
    endloop
  endfacet
  facet normal  0.000000e+000  9.238799e-001 -3.826826e-001
    outer loop
      vertex  1.990000e+002  1.500000e+002  1.000000e+000
      vertex  1.000000e+000  1.497071e+002  2.928932e-001
      vertex  1.000000e+000  1.500000e+002  1.000000e+000
    endloop
  endfacet
  facet normal  0.000000e+000  1.000000e+000  -0.000000e+000
    outer loop
      vertex  1.990000e+002  1.500000e+002  4.000000e+000
      vertex  1.990000e+002  1.500000e+002  1.000000e+000
      vertex  1.000000e+000  1.500000e+002  4.000000e+000
    endloop
  endfacet
  facet normal  0.000000e+000  1.000000e+000  0.000000e+000
    outer loop
      vertex  1.000000e+000  1.500000e+002  4.000000e+000
      vertex  1.990000e+002  1.500000e+002  1.000000e+000
      vertex  1.000000e+000  1.500000e+002  1.000000e+000
    endloop
  endfacet
  facet normal  0.000000e+000 -9.238796e-001  3.826835e-001
    outer loop
      vertex  1.000000e+000  0.000000e+000  4.000000e+000
      vertex  1.990000e+002  0.000000e+000  4.000000e+000
      vertex  1.000000e+000  2.928932e-001  4.707107e+000
    endloop
  endfacet
  facet normal  0.000000e+000 -9.238796e-001  3.826835e-001
    outer loop
      vertex  1.000000e+000  2.928932e-001  4.707107e+000
      vertex  1.990000e+002  0.000000e+000  4.000000e+000
      vertex  1.990000e+002  2.928932e-001  4.707107e+000
    endloop
  endfacet
  facet normal  0.000000e+000 -3.826837e-001  9.238794e-001
    outer loop
      vertex  1.000000e+000  2.928932e-001  4.707107e+000
      vertex  1.990000e+002  2.928932e-001  4.707107e+000
      vertex  1.000000e+000  1.000000e+000  5.000000e+000
    endloop
  endfacet
  facet normal  0.000000e+000 -3.826837e-001  9.238794e-001
    outer loop
      vertex  1.000000e+000  1.000000e+000  5.000000e+000
      vertex  1.990000e+002  2.928932e-001  4.707107e+000
      vertex  1.990000e+002  1.000000e+000  5.000000e+000
    endloop
  endfacet
  facet normal  0.000000e+000  0.000000e+000  1.000000e+000
    outer loop
      vertex  1.000000e+000  1.000000e+000  5.000000e+000
      vertex  1.990000e+002  1.000000e+000  5.000000e+000
      vertex  1.000000e+000  1.490000e+002  5.000000e+000
    endloop
  endfacet
  facet normal  -0.000000e+000  0.000000e+000  1.000000e+000
    outer loop
      vertex  1.000000e+000  1.490000e+002  5.000000e+000
      vertex  1.990000e+002  1.000000e+000  5.000000e+000
      vertex  1.990000e+002  1.490000e+002  5.000000e+000
    endloop
  endfacet
  facet normal  0.000000e+000  3.826833e-001  9.238796e-001
    outer loop
      vertex  1.000000e+000  1.490000e+002  5.000000e+000
      vertex  1.990000e+002  1.490000e+002  5.000000e+000
      vertex  1.000000e+000  1.497071e+002  4.707107e+000
    endloop
  endfacet
  facet normal  -0.000000e+000  3.826833e-001  9.238796e-001
    outer loop
      vertex  1.000000e+000  1.497071e+002  4.707107e+000
      vertex  1.990000e+002  1.490000e+002  5.000000e+000
      vertex  1.990000e+002  1.497071e+002  4.707107e+000
    endloop
  endfacet
  facet normal  0.000000e+000  9.238798e-001  3.826827e-001
    outer loop
      vertex  1.000000e+000  1.497071e+002  4.707107e+000
      vertex  1.990000e+002  1.497071e+002  4.707107e+000
      vertex  1.000000e+000  1.500000e+002  4.000000e+000
    endloop
  endfacet
  facet normal  -0.000000e+000  9.238798e-001  3.826827e-001
    outer loop
      vertex  1.000000e+000  1.500000e+002  4.000000e+000
      vertex  1.990000e+002  1.497071e+002  4.707107e+000
      vertex  1.990000e+002  1.500000e+002  4.000000e+000
    endloop
  endfacet
  facet normal  1.000000e+000  0.000000e+000  0.000000e+000
    outer loop
      vertex  2.000000e+002  1.000000e+000  4.000000e+000
      vertex  2.000000e+002  1.000000e+000  1.000000e+000
      vertex  2.000000e+002  1.490000e+002  4.000000e+000
    endloop
  endfacet
  facet normal  1.000000e+000  0.000000e+000  0.000000e+000
    outer loop
      vertex  2.000000e+002  1.490000e+002  4.000000e+000
      vertex  2.000000e+002  1.000000e+000  1.000000e+000
      vertex  2.000000e+002  1.490000e+002  1.000000e+000
    endloop
  endfacet
  facet normal  9.124873e-001 -3.779637e-001  1.565577e-001
    outer loop
      vertex  2.000000e+002  1.000000e+000  4.000000e+000
      vertex  1.997071e+002  5.000000e-001  4.500000e+000
      vertex  1.997071e+002  2.928932e-001  4.000000e+000
    endloop
  endfacet
  facet normal  9.124874e-001 -1.565576e-001  3.779638e-001
    outer loop
      vertex  2.000000e+002  1.000000e+000  4.000000e+000
      vertex  1.997071e+002  1.000000e+000  4.707107e+000
      vertex  1.997071e+002  5.000000e-001  4.500000e+000
    endloop
  endfacet
  facet normal  3.574066e-001 -3.574065e-001  8.628563e-001
    outer loop
      vertex  1.997071e+002  1.000000e+000  4.707107e+000
      vertex  1.990000e+002  1.000000e+000  5.000000e+000
      vertex  1.997071e+002  5.000000e-001  4.500000e+000
    endloop
  endfacet
  facet normal  3.574062e-001 -3.574070e-001  8.628563e-001
    outer loop
      vertex  1.997071e+002  5.000000e-001  4.500000e+000
      vertex  1.990000e+002  1.000000e+000  5.000000e+000
      vertex  1.990000e+002  2.928932e-001  4.707107e+000
    endloop
  endfacet
  facet normal  3.574063e-001 -8.628564e-001  3.574068e-001
    outer loop
      vertex  1.997071e+002  5.000000e-001  4.500000e+000
      vertex  1.990000e+002  2.928932e-001  4.707107e+000
      vertex  1.997071e+002  2.928932e-001  4.000000e+000
    endloop
  endfacet
  facet normal  3.574064e-001 -8.628563e-001  3.574069e-001
    outer loop
      vertex  1.997071e+002  2.928932e-001  4.000000e+000
      vertex  1.990000e+002  2.928932e-001  4.707107e+000
      vertex  1.990000e+002  0.000000e+000  4.000000e+000
    endloop
  endfacet
  facet normal  3.826831e-001 -9.238797e-001  0.000000e+000
    outer loop
      vertex  1.990000e+002  0.000000e+000  4.000000e+000
      vertex  1.990000e+002  0.000000e+000  1.000000e+000
      vertex  1.997071e+002  2.928932e-001  4.000000e+000
    endloop
  endfacet
  facet normal  3.826831e-001 -9.238797e-001  0.000000e+000
    outer loop
      vertex  1.997071e+002  2.928932e-001  4.000000e+000
      vertex  1.990000e+002  0.000000e+000  1.000000e+000
      vertex  1.997071e+002  2.928932e-001  1.000000e+000
    endloop
  endfacet
  facet normal  9.238799e-001 -3.826826e-001  0.000000e+000
    outer loop
      vertex  1.997071e+002  2.928932e-001  4.000000e+000
      vertex  1.997071e+002  2.928932e-001  1.000000e+000
      vertex  2.000000e+002  1.000000e+000  4.000000e+000
    endloop
  endfacet
  facet normal  9.238799e-001 -3.826826e-001  0.000000e+000
    outer loop
      vertex  2.000000e+002  1.000000e+000  4.000000e+000
      vertex  1.997071e+002  2.928932e-001  1.000000e+000
      vertex  2.000000e+002  1.000000e+000  1.000000e+000
    endloop
  endfacet
  facet normal  9.124873e-001 -1.565577e-001 -3.779637e-001
    outer loop
      vertex  2.000000e+002  1.000000e+000  1.000000e+000
      vertex  1.997071e+002  5.000000e-001  5.000000e-001
      vertex  1.997071e+002  1.000000e+000  2.928932e-001
    endloop
  endfacet
  facet normal  9.124873e-001 -3.779637e-001 -1.565577e-001
    outer loop
      vertex  2.000000e+002  1.000000e+000  1.000000e+000
      vertex  1.997071e+002  2.928932e-001  1.000000e+000
      vertex  1.997071e+002  5.000000e-001  5.000000e-001
    endloop
  endfacet
  facet normal  3.574064e-001 -8.628563e-001 -3.574068e-001
    outer loop
      vertex  1.997071e+002  2.928932e-001  1.000000e+000
      vertex  1.990000e+002  0.000000e+000  1.000000e+000
      vertex  1.997071e+002  5.000000e-001  5.000000e-001
    endloop
  endfacet
  facet normal  3.574064e-001 -8.628564e-001 -3.574068e-001
    outer loop
      vertex  1.997071e+002  5.000000e-001  5.000000e-001
      vertex  1.990000e+002  0.000000e+000  1.000000e+000
      vertex  1.990000e+002  2.928932e-001  2.928932e-001
    endloop
  endfacet
  facet normal  3.574064e-001 -3.574068e-001 -8.628563e-001
    outer loop
      vertex  1.997071e+002  5.000000e-001  5.000000e-001
      vertex  1.990000e+002  2.928932e-001  2.928932e-001
      vertex  1.997071e+002  1.000000e+000  2.928932e-001
    endloop
  endfacet
  facet normal  3.574064e-001 -3.574068e-001 -8.628564e-001
    outer loop
      vertex  1.997071e+002  1.000000e+000  2.928932e-001
      vertex  1.990000e+002  2.928932e-001  2.928932e-001
      vertex  1.990000e+002  1.000000e+000  0.000000e+000
    endloop
  endfacet
  facet normal  9.238800e-001  0.000000e+000 -3.826826e-001
    outer loop
      vertex  2.000000e+002  1.490000e+002  1.000000e+000
      vertex  2.000000e+002  1.000000e+000  1.000000e+000
      vertex  1.997071e+002  1.490000e+002  2.928932e-001
    endloop
  endfacet
  facet normal  9.238800e-001  0.000000e+000 -3.826826e-001
    outer loop
      vertex  1.997071e+002  1.490000e+002  2.928932e-001
      vertex  2.000000e+002  1.000000e+000  1.000000e+000
      vertex  1.997071e+002  1.000000e+000  2.928932e-001
    endloop
  endfacet
  facet normal  3.826831e-001  0.000000e+000 -9.238797e-001
    outer loop
      vertex  1.997071e+002  1.490000e+002  2.928932e-001
      vertex  1.997071e+002  1.000000e+000  2.928932e-001
      vertex  1.990000e+002  1.490000e+002  0.000000e+000
    endloop
  endfacet
  facet normal  3.826831e-001  0.000000e+000 -9.238797e-001
    outer loop
      vertex  1.990000e+002  1.490000e+002  0.000000e+000
      vertex  1.997071e+002  1.000000e+000  2.928932e-001
      vertex  1.990000e+002  1.000000e+000  0.000000e+000
    endloop
  endfacet
  facet normal  9.124874e-001  3.779633e-001 -1.565581e-001
    outer loop
      vertex  2.000000e+002  1.490000e+002  1.000000e+000
      vertex  1.997071e+002  1.495000e+002  5.000000e-001
      vertex  1.997071e+002  1.497071e+002  1.000000e+000
    endloop
  endfacet
  facet normal  9.124873e-001  1.565577e-001 -3.779637e-001
    outer loop
      vertex  2.000000e+002  1.490000e+002  1.000000e+000
      vertex  1.997071e+002  1.490000e+002  2.928932e-001
      vertex  1.997071e+002  1.495000e+002  5.000000e-001
    endloop
  endfacet
  facet normal  3.574064e-001  3.574068e-001 -8.628563e-001
    outer loop
      vertex  1.997071e+002  1.490000e+002  2.928932e-001
      vertex  1.990000e+002  1.490000e+002  0.000000e+000
      vertex  1.997071e+002  1.495000e+002  5.000000e-001
    endloop
  endfacet
  facet normal  3.574067e-001  3.574064e-001 -8.628563e-001
    outer loop
      vertex  1.997071e+002  1.495000e+002  5.000000e-001
      vertex  1.990000e+002  1.490000e+002  0.000000e+000
      vertex  1.990000e+002  1.497071e+002  2.928932e-001
    endloop
  endfacet
  facet normal  3.574074e-001  8.628555e-001 -3.574077e-001
    outer loop
      vertex  1.997071e+002  1.495000e+002  5.000000e-001
      vertex  1.990000e+002  1.497071e+002  2.928932e-001
      vertex  1.997071e+002  1.497071e+002  1.000000e+000
    endloop
  endfacet
  facet normal  3.574057e-001  8.628569e-001 -3.574061e-001
    outer loop
      vertex  1.997071e+002  1.497071e+002  1.000000e+000
      vertex  1.990000e+002  1.497071e+002  2.928932e-001
      vertex  1.990000e+002  1.500000e+002  1.000000e+000
    endloop
  endfacet
  facet normal  3.826822e-001  9.238800e-001  0.000000e+000
    outer loop
      vertex  1.990000e+002  1.500000e+002  1.000000e+000
      vertex  1.990000e+002  1.500000e+002  4.000000e+000
      vertex  1.997071e+002  1.497071e+002  1.000000e+000
    endloop
  endfacet
  facet normal  3.826822e-001  9.238800e-001  -0.000000e+000
    outer loop
      vertex  1.997071e+002  1.497071e+002  1.000000e+000
      vertex  1.990000e+002  1.500000e+002  4.000000e+000
      vertex  1.997071e+002  1.497071e+002  4.000000e+000
    endloop
  endfacet
  facet normal  9.238800e-001  3.826822e-001  0.000000e+000
    outer loop
      vertex  1.997071e+002  1.497071e+002  1.000000e+000
      vertex  1.997071e+002  1.497071e+002  4.000000e+000
      vertex  2.000000e+002  1.490000e+002  1.000000e+000
    endloop
  endfacet
  facet normal  9.238800e-001  3.826822e-001  -0.000000e+000
    outer loop
      vertex  2.000000e+002  1.490000e+002  1.000000e+000
      vertex  1.997071e+002  1.497071e+002  4.000000e+000
      vertex  2.000000e+002  1.490000e+002  4.000000e+000
    endloop
  endfacet
  facet normal  9.124874e-001  1.565576e-001  3.779638e-001
    outer loop
      vertex  2.000000e+002  1.490000e+002  4.000000e+000
      vertex  1.997071e+002  1.495000e+002  4.500000e+000
      vertex  1.997071e+002  1.490000e+002  4.707107e+000
    endloop
  endfacet
  facet normal  9.124874e-001  3.779633e-001  1.565581e-001
    outer loop
      vertex  2.000000e+002  1.490000e+002  4.000000e+000
      vertex  1.997071e+002  1.497071e+002  4.000000e+000
      vertex  1.997071e+002  1.495000e+002  4.500000e+000
    endloop
  endfacet
  facet normal  3.574054e-001  8.628561e-001  3.574080e-001
    outer loop
      vertex  1.997071e+002  1.497071e+002  4.000000e+000
      vertex  1.990000e+002  1.500000e+002  4.000000e+000
      vertex  1.997071e+002  1.495000e+002  4.500000e+000
    endloop
  endfacet
  facet normal  3.574070e-001  8.628564e-001  3.574060e-001
    outer loop
      vertex  1.997071e+002  1.495000e+002  4.500000e+000
      vertex  1.990000e+002  1.500000e+002  4.000000e+000
      vertex  1.990000e+002  1.497071e+002  4.707107e+000
    endloop
  endfacet
  facet normal  3.574065e-001  3.574065e-001  8.628564e-001
    outer loop
      vertex  1.997071e+002  1.495000e+002  4.500000e+000
      vertex  1.990000e+002  1.497071e+002  4.707107e+000
      vertex  1.997071e+002  1.490000e+002  4.707107e+000
    endloop
  endfacet
  facet normal  3.574066e-001  3.574066e-001  8.628563e-001
    outer loop
      vertex  1.997071e+002  1.490000e+002  4.707107e+000
      vertex  1.990000e+002  1.497071e+002  4.707107e+000
      vertex  1.990000e+002  1.490000e+002  5.000000e+000
    endloop
  endfacet
  facet normal  9.238799e-001  0.000000e+000  3.826827e-001
    outer loop
      vertex  2.000000e+002  1.000000e+000  4.000000e+000
      vertex  2.000000e+002  1.490000e+002  4.000000e+000
      vertex  1.997071e+002  1.000000e+000  4.707107e+000
    endloop
  endfacet
  facet normal  9.238799e-001  -0.000000e+000  3.826827e-001
    outer loop
      vertex  1.997071e+002  1.000000e+000  4.707107e+000
      vertex  2.000000e+002  1.490000e+002  4.000000e+000
      vertex  1.997071e+002  1.490000e+002  4.707107e+000
    endloop
  endfacet
  facet normal  3.826833e-001  0.000000e+000  9.238796e-001
    outer loop
      vertex  1.997071e+002  1.000000e+000  4.707107e+000
      vertex  1.997071e+002  1.490000e+002  4.707107e+000
      vertex  1.990000e+002  1.000000e+000  5.000000e+000
    endloop
  endfacet
  facet normal  3.826833e-001  -0.000000e+000  9.238796e-001
    outer loop
      vertex  1.990000e+002  1.000000e+000  5.000000e+000
      vertex  1.997071e+002  1.490000e+002  4.707107e+000
      vertex  1.990000e+002  1.490000e+002  5.000000e+000
    endloop
  endfacet
  facet normal -1.000000e+000  0.000000e+000  0.000000e+000
    outer loop
      vertex  0.000000e+000  1.490000e+002  4.000000e+000
      vertex  0.000000e+000  1.490000e+002  1.000000e+000
      vertex  0.000000e+000  1.000000e+000  4.000000e+000
    endloop
  endfacet
  facet normal -1.000000e+000  0.000000e+000  0.000000e+000
    outer loop
      vertex  0.000000e+000  1.000000e+000  4.000000e+000
      vertex  0.000000e+000  1.490000e+002  1.000000e+000
      vertex  0.000000e+000  1.000000e+000  1.000000e+000
    endloop
  endfacet
  facet normal -9.124870e-001  3.779641e-001  1.565584e-001
    outer loop
      vertex  0.000000e+000  1.490000e+002  4.000000e+000
      vertex  2.928932e-001  1.495000e+002  4.500000e+000
      vertex  2.928932e-001  1.497071e+002  4.000000e+000
    endloop
  endfacet
  facet normal -9.124870e-001  1.565579e-001  3.779646e-001
    outer loop
      vertex  0.000000e+000  1.490000e+002  4.000000e+000
      vertex  2.928932e-001  1.490000e+002  4.707107e+000
      vertex  2.928932e-001  1.495000e+002  4.500000e+000
    endloop
  endfacet
  facet normal -3.574070e-001  3.574064e-001  8.628562e-001
    outer loop
      vertex  2.928932e-001  1.490000e+002  4.707107e+000
      vertex  1.000000e+000  1.490000e+002  5.000000e+000
      vertex  2.928932e-001  1.495000e+002  4.500000e+000
    endloop
  endfacet
  facet normal -3.574069e-001  3.574066e-001  8.628563e-001
    outer loop
      vertex  2.928932e-001  1.495000e+002  4.500000e+000
      vertex  1.000000e+000  1.490000e+002  5.000000e+000
      vertex  1.000000e+000  1.497071e+002  4.707107e+000
    endloop
  endfacet
  facet normal -3.574077e-001  8.628555e-001  3.574078e-001
    outer loop
      vertex  2.928932e-001  1.495000e+002  4.500000e+000
      vertex  1.000000e+000  1.497071e+002  4.707107e+000
      vertex  2.928932e-001  1.497071e+002  4.000000e+000
    endloop
  endfacet
  facet normal -3.574061e-001  8.628568e-001  3.574061e-001
    outer loop
      vertex  2.928932e-001  1.497071e+002  4.000000e+000
      vertex  1.000000e+000  1.497071e+002  4.707107e+000
      vertex  1.000000e+000  1.500000e+002  4.000000e+000
    endloop
  endfacet
  facet normal -3.826826e-001  9.238799e-001  0.000000e+000
    outer loop
      vertex  1.000000e+000  1.500000e+002  4.000000e+000
      vertex  1.000000e+000  1.500000e+002  1.000000e+000
      vertex  2.928932e-001  1.497071e+002  4.000000e+000
    endloop
  endfacet
  facet normal -3.826826e-001  9.238799e-001  0.000000e+000
    outer loop
      vertex  2.928932e-001  1.497071e+002  4.000000e+000
      vertex  1.000000e+000  1.500000e+002  1.000000e+000
      vertex  2.928932e-001  1.497071e+002  1.000000e+000
    endloop
  endfacet
  facet normal -9.238797e-001  3.826831e-001  0.000000e+000
    outer loop
      vertex  2.928932e-001  1.497071e+002  4.000000e+000
      vertex  2.928932e-001  1.497071e+002  1.000000e+000
      vertex  0.000000e+000  1.490000e+002  4.000000e+000
    endloop
  endfacet
  facet normal -9.238797e-001  3.826831e-001  0.000000e+000
    outer loop
      vertex  0.000000e+000  1.490000e+002  4.000000e+000
      vertex  2.928932e-001  1.497071e+002  1.000000e+000
      vertex  0.000000e+000  1.490000e+002  1.000000e+000
    endloop
  endfacet
  facet normal -9.124869e-001  1.565580e-001 -3.779645e-001
    outer loop
      vertex  0.000000e+000  1.490000e+002  1.000000e+000
      vertex  2.928932e-001  1.495000e+002  5.000000e-001
      vertex  2.928932e-001  1.490000e+002  2.928932e-001
    endloop
  endfacet
  facet normal -9.124870e-001  3.779641e-001 -1.565584e-001
    outer loop
      vertex  0.000000e+000  1.490000e+002  1.000000e+000
      vertex  2.928932e-001  1.497071e+002  1.000000e+000
      vertex  2.928932e-001  1.495000e+002  5.000000e-001
    endloop
  endfacet
  facet normal -3.574058e-001  8.628561e-001 -3.574080e-001
    outer loop
      vertex  2.928932e-001  1.497071e+002  1.000000e+000
      vertex  1.000000e+000  1.500000e+002  1.000000e+000
      vertex  2.928932e-001  1.495000e+002  5.000000e-001
    endloop
  endfacet
  facet normal -3.574075e-001  8.628563e-001 -3.574058e-001
    outer loop
      vertex  2.928932e-001  1.495000e+002  5.000000e-001
      vertex  1.000000e+000  1.500000e+002  1.000000e+000
      vertex  1.000000e+000  1.497071e+002  2.928932e-001
    endloop
  endfacet
  facet normal -3.574071e-001  3.574067e-001 -8.628561e-001
    outer loop
      vertex  2.928932e-001  1.495000e+002  5.000000e-001
      vertex  1.000000e+000  1.497071e+002  2.928932e-001
      vertex  2.928932e-001  1.490000e+002  2.928932e-001
    endloop
  endfacet
  facet normal -3.574068e-001  3.574064e-001 -8.628564e-001
    outer loop
      vertex  2.928932e-001  1.490000e+002  2.928932e-001
      vertex  1.000000e+000  1.497071e+002  2.928932e-001
      vertex  1.000000e+000  1.490000e+002  0.000000e+000
    endloop
  endfacet
  facet normal -9.238795e-001  -0.000000e+000 -3.826834e-001
    outer loop
      vertex  0.000000e+000  1.000000e+000  1.000000e+000
      vertex  0.000000e+000  1.490000e+002  1.000000e+000
      vertex  2.928932e-001  1.000000e+000  2.928932e-001
    endloop
  endfacet
  facet normal -9.238795e-001  0.000000e+000 -3.826834e-001
    outer loop
      vertex  2.928932e-001  1.000000e+000  2.928932e-001
      vertex  0.000000e+000  1.490000e+002  1.000000e+000
      vertex  2.928932e-001  1.490000e+002  2.928932e-001
    endloop
  endfacet
  facet normal -3.826834e-001  -0.000000e+000 -9.238795e-001
    outer loop
      vertex  2.928932e-001  1.000000e+000  2.928932e-001
      vertex  2.928932e-001  1.490000e+002  2.928932e-001
      vertex  1.000000e+000  1.000000e+000  0.000000e+000
    endloop
  endfacet
  facet normal -3.826834e-001  0.000000e+000 -9.238795e-001
    outer loop
      vertex  1.000000e+000  1.000000e+000  0.000000e+000
      vertex  2.928932e-001  1.490000e+002  2.928932e-001
      vertex  1.000000e+000  1.490000e+002  0.000000e+000
    endloop
  endfacet
  facet normal -9.124869e-001 -3.779645e-001 -1.565580e-001
    outer loop
      vertex  0.000000e+000  1.000000e+000  1.000000e+000
      vertex  2.928932e-001  5.000000e-001  5.000000e-001
      vertex  2.928932e-001  2.928932e-001  1.000000e+000
    endloop
  endfacet
  facet normal -9.124869e-001 -1.565580e-001 -3.779645e-001
    outer loop
      vertex  0.000000e+000  1.000000e+000  1.000000e+000
      vertex  2.928932e-001  1.000000e+000  2.928932e-001
      vertex  2.928932e-001  5.000000e-001  5.000000e-001
    endloop
  endfacet
  facet normal -3.574068e-001 -3.574067e-001 -8.628562e-001
    outer loop
      vertex  2.928932e-001  1.000000e+000  2.928932e-001
      vertex  1.000000e+000  1.000000e+000  0.000000e+000
      vertex  2.928932e-001  5.000000e-001  5.000000e-001
    endloop
  endfacet
  facet normal -3.574067e-001 -3.574067e-001 -8.628561e-001
    outer loop
      vertex  2.928932e-001  5.000000e-001  5.000000e-001
      vertex  1.000000e+000  1.000000e+000  0.000000e+000
      vertex  1.000000e+000  2.928932e-001  2.928932e-001
    endloop
  endfacet
  facet normal -3.574067e-001 -8.628562e-001 -3.574067e-001
    outer loop
      vertex  2.928932e-001  5.000000e-001  5.000000e-001
      vertex  1.000000e+000  2.928932e-001  2.928932e-001
      vertex  2.928932e-001  2.928932e-001  1.000000e+000
    endloop
  endfacet
  facet normal -3.574067e-001 -8.628561e-001 -3.574067e-001
    outer loop
      vertex  2.928932e-001  2.928932e-001  1.000000e+000
      vertex  1.000000e+000  2.928932e-001  2.928932e-001
      vertex  1.000000e+000  0.000000e+000  1.000000e+000
    endloop
  endfacet
  facet normal -3.826834e-001 -9.238794e-001  -0.000000e+000
    outer loop
      vertex  1.000000e+000  0.000000e+000  1.000000e+000
      vertex  1.000000e+000  0.000000e+000  4.000000e+000
      vertex  2.928932e-001  2.928932e-001  1.000000e+000
    endloop
  endfacet
  facet normal -3.826834e-001 -9.238794e-001  0.000000e+000
    outer loop
      vertex  2.928932e-001  2.928932e-001  1.000000e+000
      vertex  1.000000e+000  0.000000e+000  4.000000e+000
      vertex  2.928932e-001  2.928932e-001  4.000000e+000
    endloop
  endfacet
  facet normal -9.238794e-001 -3.826834e-001  -0.000000e+000
    outer loop
      vertex  2.928932e-001  2.928932e-001  1.000000e+000
      vertex  2.928932e-001  2.928932e-001  4.000000e+000
      vertex  0.000000e+000  1.000000e+000  1.000000e+000
    endloop
  endfacet
  facet normal -9.238794e-001 -3.826834e-001  0.000000e+000
    outer loop
      vertex  0.000000e+000  1.000000e+000  1.000000e+000
      vertex  2.928932e-001  2.928932e-001  4.000000e+000
      vertex  0.000000e+000  1.000000e+000  4.000000e+000
    endloop
  endfacet
  facet normal -9.124870e-001 -1.565579e-001  3.779646e-001
    outer loop
      vertex  0.000000e+000  1.000000e+000  4.000000e+000
      vertex  2.928932e-001  5.000000e-001  4.500000e+000
      vertex  2.928932e-001  1.000000e+000  4.707107e+000
    endloop
  endfacet
  facet normal -9.124869e-001 -3.779645e-001  1.565580e-001
    outer loop
      vertex  0.000000e+000  1.000000e+000  4.000000e+000
      vertex  2.928932e-001  2.928932e-001  4.000000e+000
      vertex  2.928932e-001  5.000000e-001  4.500000e+000
    endloop
  endfacet
  facet normal -3.574068e-001 -8.628562e-001  3.574067e-001
    outer loop
      vertex  2.928932e-001  2.928932e-001  4.000000e+000
      vertex  1.000000e+000  0.000000e+000  4.000000e+000
      vertex  2.928932e-001  5.000000e-001  4.500000e+000
    endloop
  endfacet
  facet normal -3.574066e-001 -8.628561e-001  3.574068e-001
    outer loop
      vertex  2.928932e-001  5.000000e-001  4.500000e+000
      vertex  1.000000e+000  0.000000e+000  4.000000e+000
      vertex  1.000000e+000  2.928932e-001  4.707107e+000
    endloop
  endfacet
  facet normal -3.574065e-001 -3.574065e-001  8.628565e-001
    outer loop
      vertex  2.928932e-001  5.000000e-001  4.500000e+000
      vertex  1.000000e+000  2.928932e-001  4.707107e+000
      vertex  2.928932e-001  1.000000e+000  4.707107e+000
    endloop
  endfacet
  facet normal -3.574069e-001 -3.574069e-001  8.628561e-001
    outer loop
      vertex  2.928932e-001  1.000000e+000  4.707107e+000
      vertex  1.000000e+000  2.928932e-001  4.707107e+000
      vertex  1.000000e+000  1.000000e+000  5.000000e+000
    endloop
  endfacet
  facet normal -3.826836e-001  0.000000e+000  9.238794e-001
    outer loop
      vertex  1.000000e+000  1.000000e+000  5.000000e+000
      vertex  1.000000e+000  1.490000e+002  5.000000e+000
      vertex  2.928932e-001  1.000000e+000  4.707107e+000
    endloop
  endfacet
  facet normal -3.826836e-001  0.000000e+000  9.238794e-001
    outer loop
      vertex  2.928932e-001  1.000000e+000  4.707107e+000
      vertex  1.000000e+000  1.490000e+002  5.000000e+000
      vertex  2.928932e-001  1.490000e+002  4.707107e+000
    endloop
  endfacet
  facet normal -9.238794e-001  0.000000e+000  3.826835e-001
    outer loop
      vertex  2.928932e-001  1.000000e+000  4.707107e+000
      vertex  2.928932e-001  1.490000e+002  4.707107e+000
      vertex  0.000000e+000  1.000000e+000  4.000000e+000
    endloop
  endfacet
  facet normal -9.238794e-001  0.000000e+000  3.826835e-001
    outer loop
      vertex  0.000000e+000  1.000000e+000  4.000000e+000
      vertex  2.928932e-001  1.490000e+002  4.707107e+000
      vertex  0.000000e+000  1.490000e+002  4.000000e+000
    endloop
  endfacet
endsolid CATIA STL
